<svg width="258" height="303" viewBox="0 0 258 303" fill="none" xmlns="http://www.w3.org/2000/svg">
<path d="M50.6305 60.8497C48.5637 50.6001 49.2312 37.6464 51.2801 27.3968C53.1102 18.2294 68.3191 -8.85297 80.8808 4.58552C81.2119 4.94033 81.5027 5.32175 81.7532 5.72092C83.6814 8.80778 83.2339 13.1054 81.6324 16.4894C79.8251 20.3125 75.1949 25.9008 72.985 29.5065C68.6233 36.6383 69.1422 42.8164 65.4425 50.3029C62.9015 55.4433 59.1438 59.9893 54.5583 63.4664C54.2317 63.7148 53.8873 63.9631 53.4846 64.0563C51.9144 64.42 50.9486 62.4197 50.6305 60.8497Z" fill="#242323"/>
<path d="M255.53 143.067C253.51 121.696 241.42 100.997 222.551 90.6075C203.689 80.2212 178.359 81.538 161.988 95.5007C156.198 82.7723 141.092 76.2017 127.072 76.7622C113.053 77.3184 99.95 83.6935 87.9109 90.877C90.193 81.0555 82.8584 70.0958 72.8792 68.41C61.9927 66.5716 52.0922 74.3243 43.8367 81.6768C43.745 81.7598 43.6488 81.8423 43.557 81.9248C45.7956 70.8391 48.0382 59.4058 45.8784 48.2985C43.723 37.1951 36.0522 26.3658 24.9474 23.9934C18.1145 22.5329 10.483 25.5533 6.10648 30.8941C0.495262 37.7473 3.80706 43.5005 4.9675 51.188C7.71205 69.3964 1.07101 87.4309 1.12335 105.612C1.18017 125.902 9.92024 146.027 24.7206 159.963C19.0526 168.92 31.7782 183.113 38.0483 191.669C60.1706 221.858 82.2974 252.052 104.42 282.245C107.945 287.06 111.541 291.94 116.283 295.569C123.575 301.144 126.71 300.54 135.891 300.974C158.153 302.021 180.376 293.704 197.733 279.789C215.096 265.874 227.753 246.646 235.585 225.868C238.308 218.642 240.446 210.446 237.335 203.38C250.154 186.124 257.546 164.439 255.53 143.067ZM230.27 154.588C229.738 157.621 228.656 160.428 226.775 162.91C223.023 167.851 217.058 169.181 211.634 167.972C211.08 167.851 210.806 167.477 210.513 167.064C207.899 163.305 205.281 159.546 202.659 155.792C198.322 149.582 193.984 143.372 189.647 137.158C188.622 135.688 187.613 134.211 186.58 132.751C186.248 132.282 186.126 131.799 186.17 131.23C186.388 128.553 186.929 125.959 188.05 123.508C191.04 116.981 196.934 113.83 204.064 114.935C207.642 115.486 210.879 116.894 213.846 118.906C220.204 123.222 224.711 129.036 227.705 136.058C228.211 137.249 228.713 138.435 229.057 139.682C230.537 144.563 231.166 149.517 230.27 154.588Z" fill="#242323"/>
<path d="M56.8574 54.2534C57.3799 53.9872 57.6511 53.4897 57.9508 53.0337C58.5122 52.1808 59.0074 51.2841 59.5787 50.4378C61.9984 46.8551 63.5217 42.8963 64.394 38.709C65.3724 34.0136 67.2992 29.7421 69.9534 25.7842C71.8261 22.9914 73.8606 20.305 75.6281 17.4408C76.7765 15.5807 77.5675 13.5601 78.2621 11.5053C78.7051 10.1956 78.4111 9.57776 77.2655 8.81223C76.1216 8.04809 74.9128 7.8698 73.5931 8.2357C71.6659 8.7706 69.8926 9.55733 68.5115 11.0631C68.0517 11.5647 67.5144 11.9954 67.0308 12.4766C63.2949 16.1972 60.6344 20.651 58.2639 25.2844C56.984 27.7853 56.4401 30.4833 56.5098 33.2991C56.5528 35.039 56.5501 36.7794 56.5617 38.5197C56.5949 43.5256 57.0856 48.5298 56.623 53.538C56.6038 53.7433 56.6659 53.9562 56.6919 54.1664C56.6159 54.2773 56.5864 54.3838 56.7509 54.4321C56.7671 54.437 56.8212 54.3159 56.8574 54.2534Z" fill="#242323"/>
<path d="M230.739 213.501C230.861 215.232 230.564 217.005 230.177 218.71C229.055 223.651 227.239 228.408 224.899 232.911C207.304 266.782 175.893 295.348 137.399 294.666C135.247 294.627 127.649 294.483 125.726 293.525C123.641 292.486 119.326 287.781 117.846 285.992C91.7346 254.393 69.4382 224.004 49.3268 191.979C45.2052 185.416 56.5718 186.125 60.8691 185.07C67.3688 183.474 73.7817 181.525 80.0523 179.195C92.319 174.637 104.056 168.618 114.695 161.022C133.204 147.805 148.647 126.838 156.797 105.75C157.402 104.184 159.537 103.945 160.488 105.333L227.766 206.678C228.845 208.251 229.941 209.862 230.44 211.698C230.6 212.291 230.694 212.894 230.739 213.501Z" fill="#6440CA"/>
<path d="M10.1842 124.594C10.1082 124.349 10.0344 124.102 9.96235 123.855C6.36606 111.514 7.90363 98.4954 9.6738 85.9907C11.4561 73.4022 13.7529 60.4782 11.5406 47.7924C10.9287 44.2824 8.88735 40.4177 9.78297 36.8554C10.6724 33.317 13.7036 30.3477 17.253 29.4345C22.0724 28.1948 27.3427 30.2559 30.8039 33.804C34.2646 37.3521 36.1244 42.1731 37.0522 47.0225C39.055 57.4902 37.0937 68.2428 35.7307 78.8118C35.1594 83.2412 35.3621 88.9063 39.5005 90.6685C42.2258 91.828 45.3713 90.5732 47.8679 88.9862C53.8035 85.2152 58.435 79.5161 64.7906 76.4926C68.56 74.6995 73.4953 74.1141 76.5937 76.8966C78.7553 78.8384 79.4456 81.9004 79.7395 84.7779C80.2938 90.2127 79.8456 95.711 80.3931 101.147C80.9407 106.582 82.6581 112.193 86.706 115.899C93.2839 121.92 103.972 120.978 111.827 116.72C118.91 112.881 125.407 106.556 133.475 106.817C134.425 106.848 135.56 107.116 135.861 108.011C136.074 108.644 135.763 109.321 135.449 109.912C131.372 117.584 125.56 124.224 119.313 130.296C107.549 141.73 94.0475 151.405 79.4067 158.894C72.2239 162.567 64.4627 165.779 56.3843 165.544C46.2834 165.249 37.1001 159.589 29.5799 152.898C20.9115 145.186 13.5931 135.623 10.1842 124.594Z" fill="#CAB99A"/>
<path d="M221.439 178.331C221.504 178.206 221.517 178.182 221.582 178.058C229.175 177.924 236.341 173.357 240.419 166.995C244.555 160.539 245.716 152.483 244.583 144.919C243.45 137.354 240.161 130.236 235.997 123.798C231.639 117.061 226.194 110.876 219.346 106.638C212.498 102.4 204.14 100.242 196.211 101.745C189.158 103.082 182.606 107.575 179.401 113.879C178.817 115.024 177.269 115.271 176.369 114.349C175.115 113.064 173.94 111.71 173.022 110.176C165.606 97.775 187.589 91.3746 196.54 91.1557C205.914 90.9266 215.175 94.08 223.084 99.0745C234.816 106.483 243.82 118.044 248.082 131.172C252.345 144.299 251.835 158.895 246.665 171.699C243.765 178.884 239.261 185.662 232.954 190.144C231.718 191.022 229.988 190.692 229.129 189.449L221.439 178.331Z" fill="#6440CA"/>
<path d="M32.5338 161.619C33.0916 161.701 33.4295 162.041 33.8137 162.302C34.9813 163.093 36.1664 163.858 37.4575 164.441C37.9326 164.656 38.1867 164.957 38.2158 165.501C38.4783 170.423 41.9744 172.239 45.3757 172.909C48.5291 173.531 51.6915 173.386 54.8302 172.893C58.5101 172.313 62.1472 171.486 65.6535 170.223C69.27 168.921 72.8493 167.524 76.3427 165.903C86.0746 161.385 95.0977 155.729 103.676 149.35C110.575 144.221 117.031 138.585 123.002 132.417C127.187 128.092 131.103 123.532 134.469 118.544C137.333 114.299 139.898 109.887 141.387 104.947C141.866 103.357 142.217 101.738 142.274 100.071C142.364 97.4689 141.858 95.0647 139.742 93.2829C138.408 92.1585 136.812 91.5525 135.107 91.2109C132.474 90.6839 129.821 90.7431 127.176 91.0281C122.211 91.5637 117.409 92.8331 112.756 94.5798C104.978 97.5006 97.5633 101.173 90.4867 105.518C88.7613 106.578 89.1162 106.911 88.0799 104.689C87.6098 103.68 87.46 102.575 87.2626 101.487C87.1605 100.92 87.3189 100.548 87.8557 100.234C90.2876 98.813 92.7255 97.4028 95.2146 96.081C98.1936 94.4991 101.233 93.04 104.313 91.6624C105.327 91.2083 106.342 90.7483 107.387 90.3766C110.047 89.4316 112.645 88.3124 115.369 87.5502C120.737 86.0473 126.145 84.8392 131.782 84.9651C136.22 85.064 140.268 86.4258 144.145 88.436C144.372 88.5536 145.795 89.6059 146.298 90.0985C147.86 91.6263 148.655 93.8605 149.075 96.0072C149.851 99.9863 149.019 103.776 147.654 107.489C146.149 111.585 143.935 115.318 141.481 118.909C137.415 124.858 132.95 130.496 127.968 135.724C123.137 140.794 117.961 145.494 112.52 149.907C106.916 154.453 101.065 158.673 94.9159 162.463C90.1214 165.418 85.2165 168.182 80.1028 170.584C75.4167 172.785 70.6725 174.827 65.726 176.366C60.8538 177.882 55.8604 178.819 50.765 179.255C48.0316 179.489 45.3082 179.705 42.5662 179.465C41.4899 179.37 40.449 179.189 39.5082 178.606C39.1113 178.359 38.6792 178.15 38.2372 177.996C35.5678 177.072 34.1492 175.051 33.2881 172.525C32.7124 170.835 32.1165 169.157 31.8901 167.37C31.64 165.391 31.9062 163.494 32.5338 161.619Z" fill="#6440CA"/>
<path d="M54.9055 56.6509C54.6085 56.8837 54.17 56.6802 54.1624 56.3045C53.8264 39.2447 52.4925 19.857 68.0846 7.98454C70.3845 6.21315 74.6291 6.81234 76.6766 8.75851C78.4692 10.4624 77.7355 13.3018 76.7657 15.6015C74.3321 21.3715 68.4605 25.902 66.5051 31.8775C63.6818 40.5061 61.3609 51.5904 54.9055 56.6509Z" fill="#CAB99A"/>
<path d="M162.616 282.509C156.865 284.664 150.786 285.945 144.617 286.297C138.5 286.646 132.085 286.02 126.558 282.854C121.125 279.743 117.05 274.493 113.135 269.386C94.9593 245.675 76.7841 221.964 58.6089 198.253C57.4466 196.738 55.407 192.679 58.3587 192.447C60.7915 192.256 63.5338 196.026 64.8853 197.774C82.8668 221.018 100.848 244.262 118.83 267.507C121.713 271.233 124.694 275.05 128.614 277.448C133.27 280.295 138.771 280.838 144.007 280.631C149.943 280.398 155.806 279.287 161.376 277.339C162.502 276.946 163.676 276.512 164.87 276.734C166.066 276.954 167.251 278.099 167.109 279.361C166.973 280.568 165.795 281.225 164.744 281.665C164.039 281.959 163.329 282.241 162.616 282.509Z" fill="white"/>
</svg>
