<svg width="87" height="87" viewBox="0 0 87 87" fill="none" xmlns="http://www.w3.org/2000/svg">
<mask id="mask0_462_3859" style="mask-type:luminance" maskUnits="userSpaceOnUse" x="0" y="0" width="87" height="87">
<path d="M87 0H0V87H87V0Z" fill="white"/>
</mask>
<g mask="url(#mask0_462_3859)">
<path d="M75.8527 9.37508C73.9836 9.36737 72.1531 9.90651 70.5867 10.9261C69.0202 11.9457 67.7862 13.4013 67.0366 15.1134C66.287 16.8256 66.0545 18.7196 66.3679 20.5622C66.6813 22.4048 67.5268 24.1155 68.8003 25.4836L56.9547 45.287C56.1771 45.0759 55.376 44.9636 54.5703 44.9526C52.9704 44.9637 51.3993 45.379 50.0028 46.1598L40.8352 36.9921C41.616 35.5966 42.0312 34.0264 42.0423 32.4274C42.0512 30.8584 41.6761 29.3111 40.9498 27.9203C40.2235 26.5295 39.1679 25.3375 37.8753 24.4483C36.5826 23.559 35.092 22.9995 33.5335 22.8184C31.975 22.6374 30.3958 22.8402 28.9337 23.4095C27.4716 23.9787 26.1709 24.897 25.1451 26.0843C24.1193 27.2715 23.3995 28.6916 23.0484 30.2208C22.6974 31.75 22.7258 33.342 23.131 34.8577C23.5363 36.3735 24.3062 37.7671 25.3736 38.917L13.5254 58.7204C12.7481 58.5077 11.9468 58.3954 11.141 58.386C8.91035 58.3674 6.74139 59.118 4.99956 60.5117C3.25772 61.9053 2.04945 63.8567 1.57826 66.0371C1.10707 68.2176 1.40174 70.4938 2.41269 72.4823C3.42363 74.4708 5.08907 76.0501 7.12839 76.9542C9.16772 77.8583 11.4563 78.0319 13.6087 77.4458C15.7611 76.8597 17.6456 75.5497 18.945 73.7364C20.2443 71.9231 20.879 69.7174 20.7421 67.4909C20.6052 65.2643 19.7051 63.153 18.1934 61.5126L30.039 41.7092C30.8166 41.9203 31.6177 42.0326 32.4234 42.0436C34.0233 42.0325 35.5944 41.6172 36.9909 40.8364L46.1585 50.0041C45.3777 51.3996 44.9624 52.9698 44.9514 54.5688C44.9421 56.1379 45.3168 57.6855 46.0428 59.0766C46.7689 60.4676 47.8242 61.6599 49.1167 62.5495C50.4093 63.4391 51.8999 63.999 53.4585 64.1804C55.0171 64.3617 56.5964 64.1589 58.0587 63.5899C59.521 63.0208 60.8218 62.1026 61.8479 60.9154C62.8739 59.7282 63.5939 58.308 63.9451 56.7787C64.2963 55.2494 64.268 53.6574 63.8627 52.1415C63.4575 50.6257 62.6875 49.232 61.62 48.0819L73.4683 28.2758C74.2456 28.4885 75.0469 28.6008 75.8527 28.6102C78.4034 28.6102 80.8497 27.5969 82.6534 25.7933C84.457 23.9896 85.4703 21.5434 85.4703 18.9927C85.4703 16.4419 84.457 13.9956 82.6534 12.192C80.8497 10.3883 78.4034 9.37508 75.8527 9.37508ZM11.1464 72.1782C10.3201 72.1777 9.51245 71.9321 8.82562 71.4726C8.13879 71.0132 7.6036 70.3603 7.28774 69.5967C6.97188 68.8331 6.88952 67.993 7.05107 67.1826C7.21261 66.3722 7.61079 65.6279 8.1953 65.0437C8.77981 64.4596 9.5244 64.0619 10.3349 63.9008C11.1454 63.7398 11.9855 63.8228 12.7489 64.1391C13.5123 64.4555 14.1648 64.9911 14.6238 65.6782C15.0829 66.3653 15.3279 67.1731 15.3279 67.9995C15.3272 69.1085 14.8865 70.1719 14.1025 70.9563C13.3186 71.7408 12.2555 72.1822 11.1464 72.1836V72.1782ZM28.2501 32.4219C28.2501 31.5954 28.4951 30.7875 28.9543 30.1003C29.4135 29.4131 30.0661 28.8776 30.8297 28.5613C31.5932 28.245 32.4335 28.1622 33.2441 28.3234C34.0546 28.4847 34.7992 28.8827 35.3836 29.4671C35.968 30.0515 36.366 30.7961 36.5272 31.6067C36.6885 32.4173 36.6057 33.2575 36.2895 34.0211C35.9732 34.7846 35.4376 35.4373 34.7504 35.8964C34.0632 36.3556 33.2553 36.6007 32.4288 36.6007C31.3217 36.5992 30.2602 36.1593 29.4766 35.3772C28.6929 34.5951 28.251 33.5345 28.2474 32.4274L28.2501 32.4219ZM54.5758 58.7449C53.4671 58.7449 52.4039 58.3045 51.62 57.5206C50.8361 56.7366 50.3957 55.6734 50.3957 54.5648C50.3957 53.4561 50.8361 52.393 51.62 51.609C52.4039 50.8251 53.4671 50.3847 54.5758 50.3847C55.3208 50.3887 56.0508 50.5945 56.6882 50.9801L56.71 50.9991L56.7752 51.0264C57.5477 51.5036 58.1433 52.22 58.4716 53.0667C58.7999 53.9133 58.8428 54.8439 58.594 55.7172C58.3451 56.5905 57.8181 57.3588 57.0928 57.9052C56.3676 58.4516 55.4838 58.7465 54.5758 58.7449ZM75.8581 23.1673C75.1122 23.1638 74.3812 22.958 73.7429 22.5719L73.7239 22.5556L73.6858 22.542C72.8326 22.0124 72.1997 21.192 71.904 20.2322C71.6084 19.2725 71.6699 18.2382 72.0773 17.3203C72.4847 16.4023 73.2104 15.6628 74.1205 15.2381C75.0305 14.8135 76.0636 14.7324 77.0287 15.0099C77.9939 15.2874 78.8261 15.9047 79.3717 16.7478C79.9173 17.591 80.1394 18.6031 79.997 19.5972C79.8547 20.5913 79.3576 21.5004 78.5973 22.1566C77.8371 22.8128 76.8651 23.1718 75.8608 23.1673H75.8581Z" fill="black"/>
</g>
</svg>
