<svg width="150" height="150" viewBox="0 0 150 150" fill="none" xmlns="http://www.w3.org/2000/svg">
<g clip-path="url(#clip0_537_575)">
<path d="M142.5 147.5H57.5C54.7375 147.5 52.5 145.262 52.5 142.5V20C52.5 17.2375 54.7375 15 57.5 15H142.5C145.262 15 147.5 17.2375 147.5 20V142.5C147.5 145.262 145.262 147.5 142.5 147.5Z" fill="#F8F8FA"/>
<path d="M142.5 150H57.5C53.365 150 50 146.635 50 142.5V20C50 15.865 53.365 12.5 57.5 12.5H142.5C146.635 12.5 150 15.865 150 20V142.5C150 146.635 146.635 150 142.5 150ZM57.5 17.5C56.1225 17.5 55 18.6225 55 20V142.5C55 143.878 56.1225 145 57.5 145H142.5C143.877 145 145 143.878 145 142.5V20C145 18.6225 143.877 17.5 142.5 17.5H57.5Z" fill="black"/>
<path d="M132.5 30H67.5V12.5C67.5 6.9775 71.9775 2.5 77.5 2.5H122.5C128.022 2.5 132.5 6.9775 132.5 12.5V30Z" fill="#D84452"/>
<path d="M132.5 32.5H67.5C66.12 32.5 65 31.38 65 30V12.5C65 5.6075 70.6075 0 77.5 0H122.5C129.392 0 135 5.6075 135 12.5V30C135 31.38 133.88 32.5 132.5 32.5ZM70 27.5H130V12.5C130 8.365 126.635 5 122.5 5H77.5C73.365 5 70 8.365 70 12.5V27.5Z" fill="black"/>
<path d="M112.945 120H67.9453C66.5653 120 65.4453 118.88 65.4453 117.5C65.4453 116.12 66.5653 115 67.9453 115H112.945C114.325 115 115.445 116.12 115.445 117.5C115.445 118.88 114.325 120 112.945 120Z" fill="black"/>
<path d="M132.947 120H125.447C124.067 120 122.947 118.88 122.947 117.5C122.947 116.12 124.067 115 125.447 115H132.947C134.327 115 135.447 116.12 135.447 117.5C135.447 118.88 134.327 120 132.947 120Z" fill="black"/>
<path d="M80.4473 137.5H67.9473C66.5673 137.5 65.4473 136.38 65.4473 135C65.4473 133.62 66.5673 132.5 67.9473 132.5H80.4473C81.8273 132.5 82.9473 133.62 82.9473 135C82.9473 136.38 81.8273 137.5 80.4473 137.5Z" fill="black"/>
<path d="M132.947 137.5H92.9473C91.5673 137.5 90.4473 136.38 90.4473 135C90.4473 133.62 91.5673 132.5 92.9473 132.5H132.947C134.327 132.5 135.447 133.62 135.447 135C135.447 136.38 134.327 137.5 132.947 137.5Z" fill="black"/>
<path d="M112.945 85H67.9453C66.5653 85 65.4453 83.88 65.4453 82.5C65.4453 81.12 66.5653 80 67.9453 80H112.945C114.325 80 115.445 81.12 115.445 82.5C115.445 83.88 114.325 85 112.945 85Z" fill="black"/>
<path d="M132.947 85H125.447C124.067 85 122.947 83.88 122.947 82.5C122.947 81.12 124.067 80 125.447 80H132.947C134.327 80 135.447 81.12 135.447 82.5C135.447 83.88 134.327 85 132.947 85Z" fill="black"/>
<path d="M80.4473 102.5H67.9473C66.5673 102.5 65.4473 101.38 65.4473 100C65.4473 98.62 66.5673 97.5 67.9473 97.5H80.4473C81.8273 97.5 82.9473 98.62 82.9473 100C82.9473 101.38 81.8273 102.5 80.4473 102.5Z" fill="black"/>
<path d="M132.947 102.5H92.9473C91.5673 102.5 90.4473 101.38 90.4473 100C90.4473 98.62 91.5673 97.5 92.9473 97.5H132.947C134.327 97.5 135.447 98.62 135.447 100C135.447 101.38 134.327 102.5 132.947 102.5Z" fill="black"/>
<path d="M112.945 52.5H67.9453C66.5653 52.5 65.4453 51.38 65.4453 50C65.4453 48.62 66.5653 47.5 67.9453 47.5H112.945C114.325 47.5 115.445 48.62 115.445 50C115.445 51.38 114.325 52.5 112.945 52.5Z" fill="black"/>
<path d="M132.947 52.5H125.447C124.067 52.5 122.947 51.38 122.947 50C122.947 48.62 124.067 47.5 125.447 47.5H132.947C134.327 47.5 135.447 48.62 135.447 50C135.447 51.38 134.327 52.5 132.947 52.5Z" fill="black"/>
<path d="M80.4473 70H67.9473C66.5673 70 65.4473 68.88 65.4473 67.5C65.4473 66.12 66.5673 65 67.9473 65H80.4473C81.8273 65 82.9473 66.12 82.9473 67.5C82.9473 68.88 81.8273 70 80.4473 70Z" fill="black"/>
<path d="M132.947 70H92.9473C91.5673 70 90.4473 68.88 90.4473 67.5C90.4473 66.12 91.5673 65 92.9473 65H132.947C134.327 65 135.447 66.12 135.447 67.5C135.447 68.88 134.327 70 132.947 70Z" fill="black"/>
<path d="M67.5 147.5H12.5C6.9775 147.5 2.5 143.022 2.5 137.5V67.5C2.5 61.9775 6.9775 57.5 12.5 57.5H67.5C73.0225 57.5 77.5 61.9775 77.5 67.5V137.5C77.5 143.022 73.0225 147.5 67.5 147.5Z" fill="#F5BA46"/>
<path d="M60 87.5H20C17.2375 87.5 15 85.2625 15 82.5V75C15 72.2375 17.2375 70 20 70H60C62.7625 70 65 72.2375 65 75V82.5C65 85.2625 62.7625 87.5 60 87.5Z" fill="#F8F8FA"/>
<path d="M67.5 55H12.5C5.6075 55 0 60.6075 0 67.5V137.5C0 144.393 5.6075 150 12.5 150H67.5C74.3925 150 80 144.393 80 137.5V67.5C80 60.6075 74.3925 55 67.5 55ZM75 137.5C75 141.635 71.635 145 67.5 145H12.5C8.365 145 5 141.635 5 137.5V67.5C5 63.365 8.365 60 12.5 60H67.5C71.635 60 75 63.365 75 67.5V137.5Z" fill="black"/>
<path d="M20 90H60C64.135 90 67.5 86.635 67.5 82.5V75C67.5 70.865 64.135 67.5 60 67.5H20C15.865 67.5 12.5 70.865 12.5 75V82.5C12.5 86.635 15.865 90 20 90ZM17.5 75C17.5 73.6225 18.6225 72.5 20 72.5H60C61.3775 72.5 62.5 73.6225 62.5 75V82.5C62.5 83.8775 61.3775 85 60 85H20C18.6225 85 17.5 83.8775 17.5 82.5V75Z" fill="black"/>
<path d="M65.4473 100H60.4473C59.0673 100 57.9473 101.12 57.9473 102.5C57.9473 103.88 59.0673 105 60.4473 105H65.4473C66.8273 105 67.9473 103.88 67.9473 102.5C67.9473 101.12 66.8273 100 65.4473 100Z" fill="black"/>
<path d="M65.4473 115H60.4473C59.0673 115 57.9473 116.12 57.9473 117.5C57.9473 118.88 59.0673 120 60.4473 120H65.4473C66.8273 120 67.9473 118.88 67.9473 117.5C67.9473 116.12 66.8273 115 65.4473 115Z" fill="black"/>
<path d="M65.4473 130H60.4473C59.0673 130 57.9473 131.12 57.9473 132.5C57.9473 133.88 59.0673 135 60.4473 135H65.4473C66.8273 135 67.9473 133.88 67.9473 132.5C67.9473 131.12 66.8273 130 65.4473 130Z" fill="black"/>
<path d="M50.4473 100H45.4473C44.0673 100 42.9473 101.12 42.9473 102.5C42.9473 103.88 44.0673 105 45.4473 105H50.4473C51.8273 105 52.9473 103.88 52.9473 102.5C52.9473 101.12 51.8273 100 50.4473 100Z" fill="black"/>
<path d="M35.4473 100H30.4473C29.0673 100 27.9473 101.12 27.9473 102.5C27.9473 103.88 29.0673 105 30.4473 105H35.4473C36.8273 105 37.9473 103.88 37.9473 102.5C37.9473 101.12 36.8273 100 35.4473 100Z" fill="black"/>
<path d="M20.4473 100H15.4473C14.0673 100 12.9473 101.12 12.9473 102.5C12.9473 103.88 14.0673 105 15.4473 105H20.4473C21.8273 105 22.9473 103.88 22.9473 102.5C22.9473 101.12 21.8273 100 20.4473 100Z" fill="black"/>
<path d="M50.4473 115H45.4473C44.0673 115 42.9473 116.12 42.9473 117.5C42.9473 118.88 44.0673 120 45.4473 120H50.4473C51.8273 120 52.9473 118.88 52.9473 117.5C52.9473 116.12 51.8273 115 50.4473 115Z" fill="black"/>
<path d="M35.4473 115H30.4473C29.0673 115 27.9473 116.12 27.9473 117.5C27.9473 118.88 29.0673 120 30.4473 120H35.4473C36.8273 120 37.9473 118.88 37.9473 117.5C37.9473 116.12 36.8273 115 35.4473 115Z" fill="black"/>
<path d="M20.4473 115H15.4473C14.0673 115 12.9473 116.12 12.9473 117.5C12.9473 118.88 14.0673 120 15.4473 120H20.4473C21.8273 120 22.9473 118.88 22.9473 117.5C22.9473 116.12 21.8273 115 20.4473 115Z" fill="black"/>
<path d="M50.4473 130H45.4473C44.0673 130 42.9473 131.12 42.9473 132.5C42.9473 133.88 44.0673 135 45.4473 135H50.4473C51.8273 135 52.9473 133.88 52.9473 132.5C52.9473 131.12 51.8273 130 50.4473 130Z" fill="black"/>
<path d="M35.4473 130H30.4473C29.0673 130 27.9473 131.12 27.9473 132.5C27.9473 133.88 29.0673 135 30.4473 135H35.4473C36.8273 135 37.9473 133.88 37.9473 132.5C37.9473 131.12 36.8273 130 35.4473 130Z" fill="black"/>
<path d="M20.4473 130H15.4473C14.0673 130 12.9473 131.12 12.9473 132.5C12.9473 133.88 14.0673 135 15.4473 135H20.4473C21.8273 135 22.9473 133.88 22.9473 132.5C22.9473 131.12 21.8273 130 20.4473 130Z" fill="black"/>
<path d="M20 12.5H15V7.5C15 6.12 13.88 5 12.5 5C11.12 5 10 6.12 10 7.5V12.5H5C3.62 12.5 2.5 13.62 2.5 15C2.5 16.38 3.62 17.5 5 17.5H10V22.5C10 23.88 11.12 25 12.5 25C13.88 25 15 23.88 15 22.5V17.5H20C21.38 17.5 22.5 16.38 22.5 15C22.5 13.62 21.38 12.5 20 12.5Z" fill="black"/>
<path d="M36.0356 37.5006L39.2681 34.2681C40.2456 33.2906 40.2456 31.7106 39.2681 30.7331C38.2906 29.7556 36.7106 29.7556 35.7331 30.7331L32.5006 33.9656L29.2681 30.7331C28.2906 29.7556 26.7106 29.7556 25.7331 30.7331C24.7556 31.7106 24.7556 33.2906 25.7331 34.2681L28.9656 37.5006L25.7331 40.7331C24.7556 41.7106 24.7556 43.2906 25.7331 44.2681C26.2206 44.7556 26.8606 45.0006 27.5006 45.0006C28.1406 45.0006 28.7806 44.7556 29.2681 44.2681L32.5006 41.0356L35.7331 44.2681C36.2206 44.7556 36.8606 45.0006 37.5006 45.0006C38.1406 45.0006 38.7806 44.7556 39.2681 44.2681C40.2456 43.2906 40.2456 41.7106 39.2681 40.7331L36.0356 37.5006Z" fill="black"/>
<path d="M101.25 22.5C104.702 22.5 107.5 19.7018 107.5 16.25C107.5 12.7982 104.702 10 101.25 10C97.7982 10 95 12.7982 95 16.25C95 19.7018 97.7982 22.5 101.25 22.5Z" fill="#F8F8FA"/>
<path d="M101.25 22.5C104.702 22.5 107.5 19.7018 107.5 16.25C107.5 12.7982 104.702 10 101.25 10C97.7982 10 95 12.7982 95 16.25C95 19.7018 97.7982 22.5 101.25 22.5Z" fill="#F8F8FA"/>
<path d="M101.25 25C96.425 25 92.5 21.075 92.5 16.25C92.5 11.425 96.425 7.5 101.25 7.5C106.075 7.5 110 11.425 110 16.25C110 21.075 106.075 25 101.25 25ZM101.25 12.5C99.1825 12.5 97.5 14.1825 97.5 16.25C97.5 18.3175 99.1825 20 101.25 20C103.317 20 105 18.3175 105 16.25C105 14.1825 103.317 12.5 101.25 12.5Z" fill="black"/>
</g>
<defs>
<clipPath id="clip0_537_575">
<rect width="150" height="150" fill="white"/>
</clipPath>
</defs>
</svg>
