<svg width="90" height="90" viewBox="0 0 90 90" fill="none" xmlns="http://www.w3.org/2000/svg">
<path d="M69.45 42.4499C69.9 42.4499 70.5 42.2999 70.8 41.9999C72 41.2499 72.3 39.5999 71.55 38.3999L62.1 23.9999C61.95 23.6999 61.8 23.5499 61.5 23.3999C60.45 22.4999 58.8 22.7999 57.9 23.8499L47.7 37.0499L35.7 19.1999C35.55 18.8999 35.25 18.7499 34.95 18.4499C33.75 17.6999 32.1 17.9999 31.35 19.1999L18.45 38.3999C18.15 38.8499 18 39.2999 18 39.8999C18 41.2499 19.2 42.4499 20.55 42.4499H69.45Z" fill="#6440CA"/>
<path d="M19.8 50.8499H70.65C72 50.8499 73.2 52.0499 73.2 53.3999C73.2 54.7499 72 55.9499 70.65 55.9499H19.8C18.45 55.9499 17.25 54.7499 17.25 53.3999C17.25 51.8999 18.45 50.8499 19.8 50.8499Z" fill="#6440CA"/>
<path d="M25.05 63.5999H65.55C66.9 63.5999 68.1 64.7998 68.1 66.1498C68.1 67.4998 66.9 68.6999 65.55 68.6999H25.05C23.7 68.6999 22.5 67.4998 22.5 66.1498C22.5 64.7998 23.55 63.5999 25.05 63.5999Z" fill="#6440CA"/>
<path d="M82.8 20.7C84 19.05 84.75 17.1 84.75 14.85C84.75 9.45 80.4 5.25 75.15 5.25C72.9 5.25 70.95 6 69.3 7.2C62.25 2.7 54 0 45 0C20.1 0 0 20.1 0 45C0 56.25 4.05 66.45 10.8 74.25C10.35 75.15 10.2 76.2 10.2 77.25C10.2 81.15 13.35 84.3 17.25 84.3C18.75 84.3 19.95 83.85 21.15 83.1C28.05 87.45 36.3 90 45 90C69.9 90 90 69.9 90 45C90 36 87.3 27.75 82.8 20.7ZM75.15 10.2C77.7 10.2 79.8 12.3 79.8 14.85C79.8 17.4 77.7 19.35 75.15 19.35C72.6 19.35 70.5 17.4 70.5 14.85C70.5 12.3 72.6 10.2 75.15 10.2ZM45 84.9C37.35 84.9 30.15 82.8 24.15 78.9C24.3 78.3 24.45 77.7 24.45 77.1C24.45 73.2 21.3 70.05 17.4 70.05C16.35 70.05 15.45 70.2 14.7 70.65C8.85 63.75 5.25 54.75 5.25 45C5.25 22.95 23.1 5.1 45.15 5.1C52.95 5.1 60.3 7.35 66.45 11.25C66 12.3 65.7 13.5 65.7 14.85C65.7 20.25 70.05 24.45 75.3 24.45C76.5 24.45 77.7 24.15 78.9 23.7C82.8 29.85 85.05 37.2 85.05 45C84.9 67.05 66.9 84.9 45 84.9Z" fill="#6440CA"/>
</svg>
