<svg width="150" height="150" viewBox="0 0 150 150" fill="none" xmlns="http://www.w3.org/2000/svg">
<path d="M51.2788 48.8984H22.0898V54.0943H51.2788V48.8984Z" fill="#D2D2D2"/>
<path d="M53.9355 53.4648H19.4344C17.7189 53.4648 16.3281 54.8556 16.3281 56.5712C16.3281 58.2867 17.7189 59.6775 19.4344 59.6775H53.9355C55.6511 59.6775 57.0418 58.2867 57.0418 56.5712C57.0418 54.8556 55.651 53.4648 53.9355 53.4648Z" fill="#E7E3E6"/>
<path d="M64.0516 3H9.31677C5.75583 3 2.86914 5.88669 2.86914 9.44754V42.9337C2.86914 46.4947 5.75583 49.3813 9.31677 49.3813H64.0516C67.6125 49.3813 70.4992 46.4946 70.4992 42.9337V9.44754C70.4992 5.88669 67.6125 3 64.0516 3Z" fill="#E7E3E6"/>
<path d="M9.31708 41.5341C7.4923 41.5341 6.00781 40.0503 6.00781 38.2263V9.44837C6.00781 7.62437 7.4923 6.14062 9.31708 6.14062H64.0511C65.8759 6.14062 67.3604 7.62437 67.3604 9.44837V38.2263C67.3604 40.0503 65.8759 41.5341 64.0511 41.5341H9.31708Z" fill="#FFC966"/>
<path d="M127.908 48.8984H98.7188V54.0943H127.908V48.8984Z" fill="#D2D2D2"/>
<path d="M130.564 53.4648H96.0634C94.3478 53.4648 92.957 54.8556 92.957 56.5712C92.957 58.2867 94.3478 59.6775 96.0634 59.6775H130.564C132.28 59.6775 133.671 58.2867 133.671 56.5712C133.671 54.8556 132.28 53.4648 130.564 53.4648Z" fill="#E7E3E6"/>
<path d="M140.681 3H85.9457C82.3847 3 79.498 5.88669 79.498 9.44754V42.9337C79.498 46.4947 82.3847 49.3813 85.9457 49.3813H140.681C144.241 49.3813 147.128 46.4946 147.128 42.9337V9.44754C147.128 5.88669 144.241 3 140.681 3Z" fill="#E7E3E6"/>
<path d="M85.946 41.5341C84.1212 41.5341 82.6367 40.0503 82.6367 38.2263V9.44837C82.6367 7.62437 84.1212 6.14062 85.946 6.14062H140.68C142.505 6.14062 143.989 7.62437 143.989 9.44837V38.2263C143.989 40.0503 142.505 41.5341 140.68 41.5341H85.946Z" fill="#53B1E2"/>
<path d="M51.2788 136.223H22.0898V141.418H51.2788V136.223Z" fill="#D2D2D2"/>
<path d="M53.9355 140.789H19.4344C17.7189 140.789 16.3281 142.18 16.3281 143.895C16.3281 145.611 17.7189 147.002 19.4344 147.002H53.9355C55.6511 147.002 57.0418 145.611 57.0418 143.895C57.0418 142.18 55.651 140.789 53.9355 140.789Z" fill="#E7E3E6"/>
<path d="M64.0516 90.3242H9.31677C5.75583 90.3242 2.86914 93.2109 2.86914 96.7718V130.258C2.86914 133.819 5.75583 136.706 9.31677 136.706H64.0516C67.6125 136.706 70.4992 133.819 70.4992 130.258V96.7718C70.4992 93.2109 67.6125 90.3242 64.0516 90.3242Z" fill="#E7E3E6"/>
<path d="M9.31708 128.858C7.4923 128.858 6.00781 127.375 6.00781 125.551V96.7726C6.00781 94.9486 7.4923 93.4648 9.31708 93.4648H64.0511C65.8759 93.4648 67.3604 94.9486 67.3604 96.7726V125.551C67.3604 127.375 65.8759 128.858 64.0511 128.858H9.31708Z" fill="#85BD57"/>
<path d="M127.908 136.223H98.7188V141.418H127.908V136.223Z" fill="#D2D2D2"/>
<path d="M130.564 140.789H96.0634C94.3478 140.789 92.957 142.18 92.957 143.895C92.957 145.611 94.3478 147.002 96.0634 147.002H130.564C132.28 147.002 133.671 145.611 133.671 143.895C133.671 142.18 132.28 140.789 130.564 140.789Z" fill="#E7E3E6"/>
<path d="M140.681 90.3242H85.9457C82.3847 90.3242 79.498 93.2109 79.498 96.7718V130.258C79.498 133.819 82.3847 136.706 85.9457 136.706H140.681C144.241 136.706 147.128 133.819 147.128 130.258V96.7718C147.128 93.2109 144.241 90.3242 140.681 90.3242Z" fill="#E7E3E6"/>
<path d="M85.946 128.858C84.1212 128.858 82.6367 127.375 82.6367 125.551V96.7726C82.6367 94.9486 84.1212 93.4648 85.946 93.4648H140.68C142.505 93.4648 143.989 94.9486 143.989 96.7726V125.551C143.989 127.375 142.505 128.858 140.68 128.858H85.946Z" fill="#EC6E62"/>
<path d="M113.019 34.6055H36.7205C32.3692 34.6055 28.8418 38.1329 28.8418 42.4842V56.1991C28.8418 60.5504 32.3692 64.0779 36.7205 64.0779H113.019C117.371 64.0779 120.898 60.5505 120.898 56.1991V42.4842C120.898 38.1329 117.371 34.6055 113.019 34.6055Z" fill="#656766"/>
<path d="M43.0141 54.8173C46.039 54.8173 48.4911 52.3652 48.4911 49.3403C48.4911 46.3154 46.039 43.8633 43.0141 43.8633C39.9893 43.8633 37.5371 46.3154 37.5371 49.3403C37.5371 52.3652 39.9893 54.8173 43.0141 54.8173Z" fill="#EC6E62"/>
<path d="M57.5864 54.8173C60.6113 54.8173 63.0634 52.3652 63.0634 49.3403C63.0634 46.3154 60.6113 43.8633 57.5864 43.8633C54.5615 43.8633 52.1094 46.3154 52.1094 49.3403C52.1094 52.3652 54.5615 54.8173 57.5864 54.8173Z" fill="#85BD57"/>
<path d="M72.1606 54.8173C75.1855 54.8173 77.6376 52.3652 77.6376 49.3403C77.6376 46.3154 75.1855 43.8633 72.1606 43.8633C69.1357 43.8633 66.6836 46.3154 66.6836 49.3403C66.6836 52.3652 69.1357 54.8173 72.1606 54.8173Z" fill="#53B1E2"/>
<path d="M113.019 73.0977H36.7205C32.3692 73.0977 28.8418 76.6251 28.8418 80.9764V94.6913C28.8418 99.0426 32.3692 102.57 36.7205 102.57H113.019C117.371 102.57 120.898 99.0426 120.898 94.6913V80.9764C120.898 76.6251 117.371 73.0977 113.019 73.0977Z" fill="#656766"/>
<path d="M43.0141 93.3095C46.039 93.3095 48.4911 90.8573 48.4911 87.8325C48.4911 84.8076 46.039 82.3555 43.0141 82.3555C39.9893 82.3555 37.5371 84.8076 37.5371 87.8325C37.5371 90.8573 39.9893 93.3095 43.0141 93.3095Z" fill="#EC6E62"/>
<path d="M57.5864 93.3095C60.6113 93.3095 63.0634 90.8573 63.0634 87.8325C63.0634 84.8076 60.6113 82.3555 57.5864 82.3555C54.5615 82.3555 52.1094 84.8076 52.1094 87.8325C52.1094 90.8573 54.5615 93.3095 57.5864 93.3095Z" fill="#85BD57"/>
<path d="M72.1606 93.3095C75.1855 93.3095 77.6376 90.8573 77.6376 87.8325C77.6376 84.8076 75.1855 82.3555 72.1606 82.3555C69.1357 82.3555 66.6836 84.8076 66.6836 87.8325C66.6836 90.8573 69.1357 93.3095 72.1606 93.3095Z" fill="#53B1E2"/>
<path d="M109.052 64.0781H40.6875V73.0975H109.052V64.0781Z" fill="#4E4C4D"/>
</svg>
