<svg width="150" height="150" viewBox="0 0 150 150" fill="none" xmlns="http://www.w3.org/2000/svg">
<g clip-path="url(#clip0_537_487)">
<path d="M147.681 5.41318V144.589C147.681 146.29 146.289 147.681 144.588 147.681H5.41318C3.71221 147.681 2.32031 146.29 2.32031 144.589V5.41318C2.32031 3.71221 3.71221 2.32031 5.41318 2.32031H144.589C146.29 2.32061 147.681 3.71221 147.681 5.41318Z" fill="#546A79"/>
<path d="M39.0612 2.32031H5.41318C3.71221 2.32031 2.32031 3.71221 2.32031 5.41318V144.589C2.32031 146.29 3.71221 147.681 5.41318 147.681H144.589C146.29 147.681 147.681 146.29 147.681 144.589V125.988C92.1088 108.059 49.8331 60.7565 39.0612 2.32031Z" fill="#435663"/>
<path d="M121.392 45.6172H87.3711V104.38H121.392V45.6172Z" fill="#00ABD5"/>
<path d="M87.3702 45.6172H28.6074V104.38H87.3702V45.6172Z" fill="#FFD311"/>
<path d="M28.6074 104.38L87.3705 45.6172H28.6074V104.38Z" fill="#FBC119"/>
<path d="M87.3711 104.38H121.392V45.6172H121.273L87.3711 104.38Z" fill="#00A4D4"/>
<path d="M144.588 0H5.4123C2.42813 0 0 2.42813 0 5.4123V144.588C0 147.572 2.42813 150 5.4123 150H144.588C147.572 150 150 147.572 150 144.588V5.4123C150 2.42813 147.572 0 144.588 0ZM145.361 144.588C145.361 145.007 145.007 145.361 144.588 145.361H5.4123C4.99336 145.361 4.63916 145.007 4.63916 144.588V5.4123C4.63916 4.99336 4.99336 4.63916 5.4123 4.63916H144.588C145.007 4.63916 145.361 4.99336 145.361 5.4123V144.588Z" fill="black"/>
<path d="M26.2891 43.3008V106.703H123.712V43.3008H26.2891ZM89.691 47.9399H119.073V102.064H89.691V47.9399ZM30.9282 102.064V47.9399H85.0518V102.064H30.9282Z" fill="black"/>
<path d="M20.104 50.2562H15.4648V32.4727H31.7018V37.1118H20.104V50.2562Z" fill="white"/>
<path d="M134.538 50.2562H129.899V37.1118H118.301V32.4727H134.538V50.2562Z" fill="white"/>
<path d="M134.538 117.526H118.301V112.887H129.899V99.7422H134.538V117.526Z" fill="white"/>
<path d="M31.7018 117.526H15.4648V99.7422H20.104V112.887H31.7018V117.526Z" fill="white"/>
<path d="M75.0008 129.895H14.6914V134.534H75.0008V129.895Z" fill="white"/>
<path d="M135.31 129.895H127.578V134.534H135.31V129.895Z" fill="white"/>
<path d="M119.845 129.895H112.113V134.534H119.845V129.895Z" fill="white"/>
<path d="M104.382 129.895H96.6504V134.534H104.382V129.895Z" fill="white"/>
<path d="M34.7945 18.5547H27.0625V23.1938H34.7945V18.5547Z" fill="white"/>
<path d="M135.31 18.5547H127.578V23.1938H135.31V18.5547Z" fill="white"/>
<path d="M22.4234 18.5547H14.6914V23.1938H22.4234V18.5547Z" fill="white"/>
<path d="M41.7524 65.7191H37.1133V54.1211H47.165V58.7603H41.7524V65.7191Z" fill="white"/>
<path d="M100.516 65.7191H95.877V54.1211H105.928V58.7603H100.516V65.7191Z" fill="white"/>
</g>
<defs>
<clipPath id="clip0_537_487">
<rect width="150" height="150" fill="white"/>
</clipPath>
</defs>
</svg>
