<svg width="101" height="90" viewBox="0 0 101 90" fill="none" xmlns="http://www.w3.org/2000/svg">
<path d="M71.5833 11.4229L70.3066 9.64371L68.2624 11.1106L69.539 12.8897L71.5833 11.4229Z" fill="#6440CA"/>
<path d="M97.593 59.2882C95.7091 57.9971 93.3135 57.7181 91.1838 58.541L91.1365 58.5594L90.2148 59.0002C88.6546 57.0542 86.2014 55.9735 83.6681 56.1945C82.7552 56.2702 81.865 56.5131 81.0156 56.9195L80.5586 57.1411C79.813 55.8439 78.6406 54.8686 77.2144 54.3726C75.6455 53.8271 73.9585 53.9256 72.4655 54.6498L62.2625 59.5864C61.4718 59.2698 60.6099 59.0939 59.7073 59.0939H38.3843L37.0869 59.1051C29.1823 59.1745 21.7336 62.6087 16.5517 68.5493H12.1814V65.444H0V67.6338H9.99165V87.81H0V89.9997H12.1814V86.7885H18.013L56.7102 89.1138C56.8814 89.1241 57.0526 89.1291 57.2241 89.1291C58.5152 89.1291 59.7982 88.8383 60.9612 88.279L96.2259 71.4339C97.1121 71.0831 97.9013 70.5652 98.5729 69.8938C99.8806 68.5863 100.601 66.8474 100.601 64.9973C100.601 62.7136 99.4762 60.5792 97.593 59.2882ZM80.5378 60.0716L82.1563 59.2864C82.7101 59.0214 83.2921 58.862 83.8908 58.8125C85.336 58.686 86.7379 59.2043 87.7474 60.18L66.662 70.2624H65.1197C65.8829 69.2973 66.3933 68.1245 66.5518 66.8435L80.5378 60.0716ZM73.611 57.0141C74.4728 56.5963 75.4458 56.5393 76.3512 56.8542C77.1143 57.1196 77.7498 57.6241 78.1816 58.2916L66.3217 64.0351C66.0153 63.0011 65.4729 62.068 64.7569 61.2981L73.611 57.0141ZM96.7151 68.0354C96.2914 68.4591 95.791 68.7845 95.2283 69.0021L95.1814 69.0203L59.8258 85.9091C58.9076 86.3505 57.8845 86.5515 56.8676 86.4902L18.1314 84.1625L12.1816 84.1601V71.1764H17.7734L18.1673 70.7038C22.867 65.0669 29.7713 61.7967 37.1101 61.7321L38.3959 61.721H59.7075C62.0626 61.721 63.9786 63.6368 63.9786 65.9919C63.9786 68.3419 62.0705 70.254 59.7222 70.2621H43.5488L37.1795 72.3507L37.9982 74.8475L43.9686 72.8898H44.8776V72.8905H59.7075C59.7174 72.8905 59.7272 72.8898 59.7371 72.8898H67.258L92.176 60.9747C93.5045 60.4774 94.9351 60.6513 96.1072 61.4553C97.2932 62.2684 97.9731 63.5591 97.9731 64.9966C97.9729 66.1452 97.5262 67.2243 96.7151 68.0354Z" fill="#6440CA"/>
<path d="M8.62921 69.4997H6.43945V71.8837H8.62921V69.4997Z" fill="#6440CA"/>
<path d="M8.62921 73.5995H6.43945V86.0441H8.62921V73.5995Z" fill="#6440CA"/>
<path d="M52.52 40.9534V52.3246L50.2085 50.0131L48.6602 51.5615L53.6149 56.5165L58.5955 51.5357L57.0474 49.9871L54.7098 52.3246V40.9534H52.52Z" fill="#6440CA"/>
<path d="M43.2633 44.4657L40.9389 42.1413L39.3905 43.6896L44.3453 48.6444L49.3259 43.6636L47.7775 42.1152L45.4531 44.4396V39.0922H61.7749V44.4657L59.4504 42.1413L57.9023 43.6896L62.8571 48.6444L67.8377 43.6636L66.2895 42.1152L63.9649 44.4399V39.0922H85.1891V0H22.0391V39.0922H43.2633V44.4657ZM26.3176 36.9025L45.8047 21.7056L44.4583 19.9787L24.229 35.7544V3.22814L50.4387 22.036C51.3886 22.7174 52.5015 23.0582 53.6143 23.0582C54.7274 23.0582 55.8404 22.7174 56.7901 22.036L67.5675 14.3022L66.2908 12.523L55.5135 20.2568C54.3777 21.0721 52.8516 21.0721 51.7153 20.2568L26.5377 2.18976H80.6902L72.1775 8.29831L73.4542 10.0775L82.9991 3.22814V35.7537L62.7692 19.9787L61.423 21.7056L80.9114 36.9025H63.9646V33.7821H61.7749V36.9025H45.4531V33.7821H43.2633V36.9025H26.3176Z" fill="#6440CA"/>
<path d="M54.7093 32.6871H52.5195V35.8622H54.7093V32.6871Z" fill="#6440CA"/>
<path d="M45.4534 28.653H43.2637V31.8282H45.4534V28.653Z" fill="#6440CA"/>
<path d="M63.9652 28.653H61.7754V31.8282H63.9652V28.653Z" fill="#6440CA"/>
</svg>
