<svg width="109" height="90" viewBox="0 0 109 90" fill="none" xmlns="http://www.w3.org/2000/svg">
<path d="M22.9863 89.2863V22.0586H81.8281V89.2863" fill="white"/>
<path d="M22.9863 67.3857V89.2855H38.884C38.8819 82.9642 38.8819 72.5542 38.8819 66.2344H22.9863V67.3857Z" fill="#B29683"/>
<path d="M74.205 39.9023H54.502V48.8291H74.205V39.9023Z" fill="#88C5E9"/>
<path d="M74.2054 39.1875H54.5023C54.314 39.1902 54.1341 39.2662 54.0009 39.3994C53.8678 39.5326 53.7918 39.7124 53.7891 39.9007V48.8275C53.7917 49.0158 53.8677 49.1957 54.0009 49.3289C54.134 49.4621 54.3139 49.5381 54.5023 49.5407H74.2054C74.3937 49.538 74.5736 49.462 74.7068 49.3288C74.8399 49.1956 74.9159 49.0158 74.9186 48.8275V39.9007C74.9186 38.9827 73.4922 38.9813 73.4922 39.9007V48.8275L74.2054 48.1142H54.5023L55.2155 48.8275V39.9007L54.5023 40.614H74.2054C75.1219 40.614 75.1234 39.1875 74.2054 39.1875Z" fill="#211715"/>
<path d="M23.698 89.2846V22.057L22.9847 22.7702H81.8265L81.1133 22.057V89.2846C81.1133 90.2023 82.5398 90.2038 82.5398 89.2846V22.057C82.5371 21.8687 82.4611 21.6888 82.3279 21.5556C82.1947 21.4224 82.0149 21.3464 81.8265 21.3438H22.9847C22.7964 21.3464 22.6165 21.4224 22.4834 21.5556C22.3502 21.6888 22.2742 21.8687 22.2715 22.057V89.2846C22.2715 90.2023 23.698 90.2038 23.698 89.2846Z" fill="#211715"/>
<path d="M28.097 28.8093H76.7137C77.6317 28.8093 77.6332 27.3828 76.7137 27.3828H28.097C27.1793 27.3828 27.1779 28.8093 28.097 28.8093Z" fill="#211715"/>
<path d="M22.9859 66.9499H38.8818L38.1686 66.2367V89.2905C38.1686 90.2082 39.5951 90.21 39.5951 89.2905V66.2367C39.5924 66.0483 39.5164 65.8685 39.3832 65.7353C39.25 65.6021 39.0702 65.5261 38.8818 65.5234H22.9859C22.0679 65.5234 22.0664 66.9499 22.9859 66.9499Z" fill="#211715"/>
<path d="M22.9857 90.0007H81.8275C82.7452 90.0007 82.7467 88.5742 81.8275 88.5742H22.9857C22.068 88.5742 22.0665 90.0007 22.9857 90.0007Z" fill="#211715"/>
<path d="M78.6185 14.1313C78.6044 14.1942 78.5695 14.2504 78.5195 14.291C78.4695 14.3315 78.4072 14.3539 78.3428 14.3546C78.2784 14.3553 78.2157 14.3342 78.1648 14.2947C78.1139 14.2553 78.0778 14.1998 78.0624 14.1373C77.71 12.7441 77.151 11.0314 76.2865 10.0249C75.2253 8.78921 73.6713 8.2944 72.2612 8.00643C72.1962 7.99364 72.1378 7.95865 72.0958 7.90746C72.0539 7.85628 72.031 7.79209 72.0313 7.7259C72.0315 7.65972 72.0547 7.59568 72.097 7.54476C72.1393 7.49384 72.1979 7.45922 72.2629 7.44684C73.6576 7.1669 75.2318 6.66585 76.2642 5.55202C77.2449 4.49405 77.7798 2.32166 78.0719 0.934124C78.0852 0.87048 78.1198 0.813275 78.17 0.77198C78.2202 0.730685 78.283 0.707777 78.348 0.707049C78.413 0.706321 78.4764 0.727817 78.5275 0.767977C78.5786 0.808137 78.6145 0.864553 78.6292 0.927883C78.9528 2.31512 79.5525 4.49227 80.5347 5.55202C81.5582 6.65634 83.0574 7.15679 84.4132 7.43971C84.4783 7.45242 84.537 7.48746 84.5791 7.5388C84.6212 7.59013 84.6441 7.65454 84.6439 7.72094C84.6436 7.78733 84.6201 7.85154 84.5776 7.90252C84.5351 7.95349 84.4761 7.98803 84.4108 8.00019C82.9668 8.27538 81.3481 8.74523 80.2874 9.98001C79.4232 10.9863 78.9394 12.7266 78.6185 14.1313Z" fill="#FFDA71"/>
<path d="M77.9304 13.9434L78.7497 13.9493L78.7221 13.8415C78.7053 13.7482 78.6811 13.6565 78.6496 13.5672C78.609 13.4168 78.5667 13.2668 78.5227 13.1172C78.4205 12.7707 78.3087 12.4266 78.1839 12.0872C77.9532 11.4195 77.6499 10.7791 77.2796 10.1775C76.4961 9.02731 75.3512 8.17149 74.0263 7.74568C73.7497 7.64672 73.4679 7.56232 73.1835 7.48862C73.0442 7.45236 72.9039 7.41878 72.7633 7.38698C72.6782 7.36175 72.5913 7.34307 72.5033 7.33111C72.2025 7.25186 72.1859 7.52022 72.4534 8.13617L72.5609 8.11418C73.2236 8.01043 73.8696 7.81958 74.4822 7.54657C75.7485 7.02947 76.8487 6.23659 77.5001 5.00894C78.051 3.89101 78.4489 2.70401 78.6832 1.47992C78.6965 1.42048 78.7096 1.35956 78.7224 1.29923C78.7818 1.01899 78.8207 1.12597 78.35 1.12092C77.8448 1.11676 77.9322 1.08883 78.0145 1.42642C78.0862 1.71944 78.1629 2.01127 78.2445 2.30192C78.4163 2.91878 78.6253 3.52466 78.8704 4.11621C79.3399 5.36655 80.2201 6.42041 81.3667 7.10525C81.9591 7.43907 82.5892 7.70096 83.2437 7.88535C83.5431 7.99532 83.8534 8.07273 84.1694 8.11626C84.4945 8.13498 84.4927 7.30793 84.1694 7.32249C84.0815 7.33313 83.9946 7.35062 83.9094 7.3748C83.7509 7.40768 83.5924 7.44344 83.4339 7.48208C81.9777 7.8387 80.5349 8.48952 79.6003 9.7044C78.6704 10.9115 78.2665 12.4816 77.9304 13.9419C77.7247 14.8355 79.0998 15.2168 79.3057 14.3211C79.6172 12.9683 79.9545 11.3514 80.9465 10.3133C81.4274 9.82566 82.0101 9.45021 82.6529 9.21375C83.3135 8.96055 84.0134 8.88418 84.677 8.66278C85.6208 8.34777 85.5165 7.02174 84.6024 6.75161C83.8837 6.59038 83.1798 6.3693 82.4981 6.09068C81.8754 5.81344 81.325 5.39652 80.8894 4.87223C80.5068 4.3361 80.208 3.74488 80.0032 3.11887C79.7662 2.45399 79.5652 1.77683 79.4011 1.09031C79.3662 0.74345 79.2011 0.42273 78.939 0.192825C78.7547 0.057962 78.5297 -0.00969257 78.3015 0.00112145C78.0733 0.0119355 77.8557 0.100566 77.6849 0.252261C77.4695 0.486031 77.3369 0.784156 77.3075 1.10071C77.2308 1.44723 77.1482 1.79225 77.0558 2.1352C76.892 2.79564 76.6671 3.43943 76.3842 4.05826C76.1234 4.64651 75.7183 5.15937 75.2064 5.54921C74.5874 5.98059 73.898 6.3007 73.169 6.49514C72.5101 6.68712 71.5345 6.68593 71.3452 7.50555C71.2977 7.71518 71.3186 7.93451 71.4049 8.13138C71.4911 8.32825 71.6382 8.4923 71.8245 8.59948C72.1735 8.73853 72.5372 8.83705 72.9086 8.89309C73.6831 9.08101 74.4162 9.41014 75.0712 9.86398C75.69 10.3462 76.1772 10.9768 76.4876 11.6973C76.8468 12.4921 77.1297 13.3192 77.3325 14.1675C77.3656 14.3903 77.4691 14.5967 77.6278 14.7566C77.7865 14.9165 77.9922 15.0215 78.2148 15.0563C78.4541 15.0844 78.6956 15.0259 78.8956 14.8916C79.0957 14.7573 79.2411 14.5559 79.3057 14.3238C79.3543 14.1414 79.3293 13.9474 79.2361 13.7833C79.143 13.6192 78.9891 13.4983 78.8077 13.4465C78.6256 13.4 78.4326 13.4258 78.2691 13.5184C78.1055 13.611 77.9842 13.7633 77.9304 13.9434Z" fill="#211715"/>
<path d="M7.0451 48.6502C7.03392 48.7003 7.00612 48.7451 6.96622 48.7774C6.92632 48.8097 6.87667 48.8275 6.82535 48.828C6.77403 48.8285 6.72405 48.8116 6.68355 48.78C6.64305 48.7485 6.61442 48.7042 6.6023 48.6543C6.27362 47.317 5.7381 45.6035 4.88905 44.6153C3.83792 43.3915 2.27386 42.9398 0.893453 42.6747C0.841173 42.6654 0.793858 42.6379 0.75978 42.5971C0.725703 42.5564 0.707031 42.505 0.707031 42.4519C0.707031 42.3987 0.725703 42.3473 0.75978 42.3066C0.793858 42.2658 0.841173 42.2384 0.893453 42.229C2.25454 41.9737 3.84357 41.5095 4.86646 40.4055C5.8326 39.3627 6.34078 37.1707 6.60497 35.8803C6.61572 35.8294 6.64351 35.7837 6.68376 35.7508C6.72401 35.7179 6.7743 35.6997 6.8263 35.6992C6.87831 35.6988 6.9289 35.7161 6.96972 35.7483C7.01053 35.7806 7.03912 35.8257 7.05074 35.8764C7.34466 37.1662 7.91792 39.3618 8.88494 40.4055C9.90011 41.5006 11.411 41.9663 12.7397 42.2227C12.7922 42.2323 12.8396 42.26 12.8738 42.301C12.9079 42.342 12.9266 42.3936 12.9266 42.447C12.9266 42.5003 12.9079 42.552 12.8738 42.5929C12.8396 42.6339 12.7922 42.6616 12.7397 42.6712C11.331 42.9253 9.70249 43.3517 8.65374 44.5731C7.80558 45.561 7.34674 47.3013 7.0451 48.6502Z" fill="#FFDA71"/>
<path d="M6.35844 48.4619L6.3314 48.5318L6.51476 48.2171L7.13646 48.2206L7.32012 48.5353C7.17153 48.1731 7.11001 47.7573 6.99589 47.3811C6.87554 46.9838 6.74121 46.5903 6.58608 46.2049C6.29513 45.4087 5.8654 44.6704 5.31682 44.0241C4.75889 43.429 4.07996 42.9602 3.32571 42.6494C2.93329 42.48 2.52965 42.3379 2.11767 42.2241C1.75689 42.1252 1.36194 42.0877 1.01156 41.962L1.32628 42.1457V42.7611L1.01156 42.9445C1.40265 42.8063 1.84159 42.7662 2.24308 42.6518C2.69882 42.5224 3.14433 42.3594 3.57594 42.1641C4.4069 41.8073 5.13268 41.2437 5.68414 40.5269C6.15496 39.8373 6.51122 39.0761 6.73913 38.2728C6.86811 37.8713 6.97687 37.4639 7.07732 37.0544C7.13829 36.6988 7.21965 36.3471 7.32101 36.0008L7.13765 36.3156L6.5207 36.3123L6.33734 35.9976C6.44693 36.3432 6.53682 36.6947 6.60659 37.0505C6.70703 37.4258 6.8164 37.7988 6.94032 38.167C7.18344 38.9778 7.54559 39.7479 8.01493 40.4523C8.55001 41.1749 9.25836 41.7512 10.0747 42.1281C10.4929 42.3273 10.9258 42.4941 11.3695 42.6271C11.7793 42.7501 12.226 42.7953 12.626 42.9394L12.3113 42.7561V42.1433L12.626 41.9599C12.2753 42.0815 11.8807 42.1136 11.5193 42.2048C11.1297 42.3018 10.7471 42.4251 10.3742 42.5739C9.58002 42.8708 8.86051 43.3381 8.26634 43.943C7.13705 45.1505 6.71179 46.8943 6.35874 48.4622C6.15755 49.3562 7.5326 49.738 7.73439 48.8414C8.02325 47.5576 8.3231 46.0007 9.23604 44.9932C9.69859 44.499 10.2711 44.1207 10.9071 43.8889C11.5698 43.6366 12.2578 43.5567 12.9312 43.3611C13.1301 43.3055 13.3054 43.1863 13.4304 43.0218C13.5553 42.8572 13.623 42.6564 13.6232 42.4498C13.6234 42.2432 13.556 42.0422 13.4313 41.8775C13.3066 41.7128 13.1315 41.5933 12.9327 41.5373C12.2304 41.3329 11.5196 41.2342 10.848 40.9213C10.2421 40.6639 9.70384 40.27 9.27527 39.7703C8.89543 39.2459 8.60216 38.6639 8.40661 38.0466C8.18433 37.4119 7.99585 36.7658 7.84197 36.1111C7.80775 35.7967 7.68467 35.4986 7.48713 35.2517C7.33244 35.1059 7.13351 35.0161 6.92193 34.9963C6.71034 34.9766 6.49821 35.028 6.31921 35.1426C5.98548 35.3566 5.9195 35.7132 5.84224 36.0707C5.76973 36.4065 5.69157 36.7411 5.60449 37.0734C5.45175 37.7072 5.24147 38.3257 4.97625 38.9212C4.73613 39.4808 4.35951 39.9713 3.88084 40.3477C3.3037 40.7583 2.65775 41.0622 1.97354 41.2452C1.34054 41.4315 0.279606 41.4161 0.0451307 42.1665C-0.0155409 42.3544 -0.0150273 42.5568 0.0465977 42.7444C0.108223 42.9321 0.227783 43.0954 0.388077 43.2108C0.693282 43.4229 1.11974 43.4443 1.47606 43.5326C2.22467 43.6982 2.93869 43.9931 3.58604 44.4039C4.21578 44.8502 4.7121 45.4595 5.02172 46.1665C5.36926 46.9262 5.64168 47.7181 5.83511 48.5309C5.95071 48.9767 6.10495 49.3969 6.60391 49.5163C6.84257 49.5682 7.09204 49.5275 7.30174 49.4022C7.51145 49.277 7.66569 49.0768 7.7332 48.842C7.78206 48.6597 7.7572 48.4654 7.66401 48.3012C7.57081 48.137 7.41676 48.016 7.23512 47.9645C7.05306 47.9188 6.86041 47.945 6.69717 48.0377C6.53392 48.1303 6.41262 48.2822 6.35844 48.4619Z" fill="#211715"/>
<path d="M102.011 43.2249C102 43.2745 101.972 43.3189 101.932 43.3509C101.893 43.3828 101.844 43.4005 101.793 43.4011C101.742 43.4017 101.692 43.3851 101.652 43.3541C101.612 43.323 101.583 43.2793 101.57 43.2299C101.266 42.0073 100.777 40.4712 100.009 39.5776C99.0635 38.478 97.6679 38.0542 96.4183 37.8073C96.3659 37.7982 96.3184 37.771 96.2841 37.7305C96.2498 37.6899 96.2308 37.6386 96.2305 37.5855C96.2302 37.5324 96.2485 37.4808 96.2824 37.4399C96.3162 37.3989 96.3633 37.3712 96.4156 37.3615C97.6501 37.1238 99.0685 36.692 99.9895 35.6973C100.861 34.7567 101.327 32.8007 101.576 31.6036C101.586 31.5528 101.613 31.507 101.653 31.4739C101.693 31.4408 101.743 31.4225 101.795 31.4219C101.847 31.4213 101.898 31.4385 101.938 31.4707C101.979 31.5028 102.007 31.548 102.019 31.5986C102.295 32.795 102.819 34.7555 103.692 35.6973C104.605 36.6827 105.955 37.1148 107.157 37.3547C107.208 37.3657 107.254 37.3942 107.287 37.4353C107.32 37.4764 107.337 37.5276 107.336 37.5801C107.336 37.6326 107.317 37.6833 107.283 37.7235C107.249 37.7636 107.202 37.7908 107.151 37.8004C105.873 38.0367 104.421 38.437 103.477 39.5354C102.71 40.432 102.289 41.9928 102.011 43.2249Z" fill="#FFDA71"/>
<path d="M101.324 43.0357L101.297 43.1046L101.481 42.7899L102.105 42.7944L102.288 43.1091C102.157 42.7953 102.103 42.4345 102.004 42.1082C101.894 41.7459 101.772 41.3869 101.631 41.0357C101.364 40.3051 100.973 39.6261 100.475 39.0285C99.9638 38.4687 99.3366 38.0271 98.6372 37.7346C98.2887 37.5816 97.9306 37.4518 97.565 37.3459C97.2295 37.2502 96.8634 37.2124 96.5374 37.0939L96.8521 37.2772L96.8497 37.8939L96.5347 38.0772C96.9035 37.9441 97.316 37.9025 97.6937 37.791C98.0856 37.6747 98.4689 37.5311 98.8408 37.3613C99.6182 37.024 100.295 36.4917 100.807 35.816C101.228 35.1923 101.549 34.5063 101.758 33.783C101.873 33.4287 101.971 33.0697 102.06 32.7081C102.119 32.376 102.196 32.0475 102.292 31.7241L102.108 32.0388L101.489 32.0346L101.305 31.7199C101.404 32.0265 101.485 32.3385 101.548 32.6543C101.645 33.0153 101.751 33.374 101.873 33.7277C102.096 34.455 102.425 35.1458 102.849 35.7782C103.33 36.4292 103.964 36.9522 104.695 37.3013C105.079 37.4893 105.476 37.6471 105.884 37.7732C106.261 37.8903 106.673 37.9352 107.041 38.0704L106.726 37.887L106.72 37.2725L107.035 37.0891C106.708 37.2035 106.344 37.2356 106.009 37.3242C105.666 37.4134 105.329 37.5253 105 37.6594C104.264 37.9395 103.599 38.3786 103.052 38.9456C102.043 40.0496 101.647 41.6128 101.324 43.0342C101.121 43.9278 102.496 44.3097 102.699 43.4134C102.967 42.2407 103.246 40.8175 104.1 39.912C104.532 39.4707 105.059 39.1351 105.642 38.9313C105.939 38.8236 106.242 38.7324 106.549 38.6582C106.872 38.6121 107.191 38.5351 107.5 38.4282C107.673 38.3453 107.817 38.2116 107.912 38.045C108.007 37.8783 108.049 37.6865 108.033 37.4953C108.016 37.3041 107.942 37.1224 107.819 36.9745C107.697 36.8267 107.532 36.7196 107.348 36.6677C106.705 36.5304 106.076 36.3386 105.466 36.0944C104.915 35.855 104.43 35.486 104.052 35.0186C103.72 34.5371 103.46 34.0088 103.283 33.451C103.086 32.8793 102.917 32.298 102.778 31.7092C102.762 31.5432 102.712 31.3822 102.631 31.2363C102.55 31.0904 102.44 30.9626 102.307 30.8608C102.154 30.7649 101.977 30.7143 101.796 30.7148C101.616 30.7154 101.439 30.7672 101.286 30.8641C100.77 31.1954 100.751 32.0825 100.607 32.6287C100.47 33.1963 100.282 33.7504 100.046 34.2843C99.8243 34.8076 99.4724 35.2653 99.0236 35.6139C98.4886 35.9884 97.8911 36.2646 97.2592 36.4294C96.6467 36.6062 95.7305 36.6008 95.5492 37.3607C95.5058 37.5417 95.5174 37.7315 95.5825 37.9059C95.6476 38.0802 95.7633 38.2312 95.9148 38.3393C96.2457 38.5063 96.6029 38.6152 96.9707 38.6612C97.6669 38.8201 98.3262 39.1114 98.9124 39.5191C99.4532 39.9492 99.8753 40.51 100.139 41.1486C100.434 41.85 100.675 42.5734 100.857 43.3124C101.135 44.2895 102.326 44.3668 102.699 43.4128C102.748 43.2305 102.724 43.0362 102.63 42.872C102.537 42.7078 102.383 42.587 102.201 42.5355C102.019 42.4898 101.826 42.5163 101.662 42.6095C101.499 42.7027 101.378 42.8554 101.324 43.0357Z" fill="#211715"/>
<path d="M25.7461 77.1985V78.3278C25.7479 78.5166 25.8224 78.6976 25.9541 78.833C26.0879 78.9667 26.2693 79.0418 26.4584 79.0418C26.6476 79.0418 26.829 78.9667 26.9628 78.833C27.0937 78.6971 27.1681 78.5165 27.1708 78.3278V77.1985C27.1688 77.0096 27.0943 76.8287 26.9628 76.6933C26.829 76.5595 26.6476 76.4844 26.4584 76.4844C26.2693 76.4844 26.0879 76.5595 25.9541 76.6933C25.8229 76.829 25.7485 77.0097 25.7461 77.1985Z" fill="#211715"/>
</svg>
