<svg width="90" height="90" viewBox="0 0 90 90" fill="none" xmlns="http://www.w3.org/2000/svg">
<path d="M0 0V72.4043H26.0655V69.5081H2.89617V14.4809H86.8852V69.5081H63.7158V72.4043H89.7813V0H0ZM86.8852 11.5847H2.89617V2.89617H86.8852V11.5847Z" fill="black"/>
<path d="M20.2731 5.79297H17.377V8.68914H20.2731V5.79297Z" fill="black"/>
<path d="M14.4815 5.79297H5.79297V8.68914H14.4815V5.79297Z" fill="black"/>
<path d="M66.6126 52.133C76.1946 52.133 83.9896 44.3379 83.9896 34.7559C83.9896 25.174 76.1946 17.3789 66.6126 17.3789H66.4185C61.5327 17.3789 56.8467 19.4526 53.561 23.067L44.8913 32.6026L36.2216 23.0655C32.9359 19.4526 28.2484 17.3789 23.364 17.3789H23.17C13.588 17.3789 5.79297 25.174 5.79297 34.7559C5.79297 44.3379 13.588 52.133 23.17 52.133H23.364C28.2499 52.133 32.9359 50.0593 36.2216 46.4449L44.8913 36.9092L53.561 46.4463C56.8467 50.0593 61.5341 52.133 66.4185 52.133H66.6126ZM34.0799 44.4972C31.3401 47.5092 27.4346 49.2368 23.364 49.2368H23.17C15.1853 49.2368 8.68914 42.7407 8.68914 34.7559C8.68914 26.7712 15.1853 20.2751 23.17 20.2751H23.364C27.4346 20.2751 31.3401 22.0026 34.0799 25.0147L42.9335 34.7559L34.0799 44.4972ZM55.7027 44.4972L46.8491 34.7559L55.7041 25.0147C58.4439 22.0012 62.3494 20.2751 66.42 20.2751H66.6126C74.5973 20.2751 81.0934 26.7712 81.0934 34.7559C81.0934 42.7407 74.5973 49.2368 66.6126 49.2368H66.4185C62.348 49.2368 58.4425 47.5092 55.7027 44.4972Z" fill="black"/>
<path d="M60.8197 55.0273H57.9235V78.1967H59.7105L44.8908 86.6666L30.071 78.1967H31.858V57.9235H28.9618V75.3006H19.1641L44.8908 90.0001L70.6175 75.3006H60.8197V55.0273Z" fill="black"/>
<path d="M37.6501 55.0273H34.7539V78.1967H37.6501V55.0273Z" fill="black"/>
<path d="M37.6501 49.2344H34.7539V52.1305H37.6501V49.2344Z" fill="black"/>
<path d="M43.443 52.1328H40.5469V81.0945H43.443V52.1328Z" fill="black"/>
<path d="M43.443 46.3398H40.5469V49.236H43.443V46.3398Z" fill="black"/>
<path d="M49.2341 49.2344H46.3379V52.1305H49.2341V49.2344Z" fill="black"/>
<path d="M49.2341 43.4414H46.3379V46.3376H49.2341V43.4414Z" fill="black"/>
<path d="M55.027 57.9219H52.1309V78.1951H55.027V57.9219Z" fill="black"/>
<path d="M55.027 52.1328H52.1309V55.029H55.027V52.1328Z" fill="black"/>
<path d="M49.2341 55.0273H46.3379V81.0929H49.2341V55.0273Z" fill="black"/>
<path d="M55.027 33.3047H52.1309V36.2009H55.027V33.3047Z" fill="black"/>
<path d="M57.9235 30.4102H55.0273V33.3063H57.9235V30.4102Z" fill="black"/>
<path d="M57.9235 36.2031H55.0273V39.0993H57.9235V36.2031Z" fill="black"/>
<path d="M37.6501 33.3047H34.7539V36.2009H37.6501V33.3047Z" fill="black"/>
<path d="M34.7536 30.4102H31.8574V33.3063H34.7536V30.4102Z" fill="black"/>
<path d="M34.7536 36.2031H31.8574V39.0993H34.7536V36.2031Z" fill="black"/>
</svg>
