<svg width="90" height="90" viewBox="0 0 90 90" fill="none" xmlns="http://www.w3.org/2000/svg">
<path d="M0 0V72.4043H26.0655V69.5081H2.89617V14.4809H86.8852V69.5081H63.7158V72.4043H89.7813V0H0ZM86.8852 11.5847H2.89617V2.89617H86.8852V11.5847Z" fill="#6440CA"/>
<path d="M20.2731 5.79234H17.377V8.68852H20.2731V5.79234Z" fill="#6440CA"/>
<path d="M14.4815 5.79234H5.79297V8.68852H14.4815V5.79234Z" fill="#6440CA"/>
<path d="M66.6126 52.1311C76.1946 52.1311 83.9896 44.3361 83.9896 34.7541C83.9896 25.1721 76.1946 17.377 66.6126 17.377H66.4185C61.5327 17.377 56.8467 19.4507 53.561 23.0651L44.8913 32.6008L36.2216 23.0637C32.9359 19.4507 28.2484 17.377 23.364 17.377H23.17C13.588 17.377 5.79297 25.1721 5.79297 34.7541C5.79297 44.3361 13.588 52.1311 23.17 52.1311H23.364C28.2499 52.1311 32.9359 50.0574 36.2216 46.443L44.8913 36.9074L53.561 46.4445C56.8467 50.0574 61.5341 52.1311 66.4185 52.1311H66.6126ZM34.0799 44.4953C31.3401 47.5074 27.4346 49.2349 23.364 49.2349H23.17C15.1853 49.2349 8.68914 42.7388 8.68914 34.7541C8.68914 26.7693 15.1853 20.2732 23.17 20.2732H23.364C27.4346 20.2732 31.3401 22.0008 34.0799 25.0128L42.9335 34.7541L34.0799 44.4953ZM55.7027 44.4953L46.8491 34.7541L55.7041 25.0128C58.4439 21.9993 62.3494 20.2732 66.42 20.2732H66.6126C74.5973 20.2732 81.0934 26.7693 81.0934 34.7541C81.0934 42.7388 74.5973 49.2349 66.6126 49.2349H66.4185C62.348 49.2349 58.4425 47.5074 55.7027 44.4953Z" fill="#6440CA"/>
<path d="M60.8197 55.0273H57.9235V78.1966H59.7105L44.8908 86.6665L30.071 78.1966H31.858V57.9234H28.9618V75.3005H19.1641L44.8908 90L70.6175 75.3005H60.8197V55.0273Z" fill="#6440CA"/>
<path d="M37.6501 55.0273H34.7539V78.1966H37.6501V55.0273Z" fill="#6440CA"/>
<path d="M37.6501 49.2349H34.7539V52.1311H37.6501V49.2349Z" fill="#6440CA"/>
<path d="M43.443 52.1311H40.5469V81.0928H43.443V52.1311Z" fill="#6440CA"/>
<path d="M43.443 46.3388H40.5469V49.2349H43.443V46.3388Z" fill="#6440CA"/>
<path d="M49.2341 49.2349H46.3379V52.1311H49.2341V49.2349Z" fill="#6440CA"/>
<path d="M49.2341 43.4426H46.3379V46.3388H49.2341V43.4426Z" fill="#6440CA"/>
<path d="M55.027 57.9234H52.1309V78.1966H55.027V57.9234Z" fill="#6440CA"/>
<path d="M55.027 52.1311H52.1309V55.0273H55.027V52.1311Z" fill="#6440CA"/>
<path d="M49.2341 55.0273H46.3379V81.0928H49.2341V55.0273Z" fill="#6440CA"/>
<path d="M55.027 33.306H52.1309V36.2022H55.027V33.306Z" fill="#6440CA"/>
<path d="M57.9235 30.4098H55.0273V33.306H57.9235V30.4098Z" fill="#6440CA"/>
<path d="M57.9235 36.2022H55.0273V39.0983H57.9235V36.2022Z" fill="#6440CA"/>
<path d="M37.6501 33.306H34.7539V36.2022H37.6501V33.306Z" fill="#6440CA"/>
<path d="M34.7536 30.4098H31.8574V33.306H34.7536V30.4098Z" fill="#6440CA"/>
<path d="M34.7536 36.2022H31.8574V39.0983H34.7536V36.2022Z" fill="#6440CA"/>
</svg>
