<svg width="198" height="199" viewBox="0 0 198 199" fill="none" xmlns="http://www.w3.org/2000/svg">
<path d="M4.58008 99.0141C4.58008 50.3312 41.6181 10.1354 88.9954 5.1205C89.8609 5.02845 90.7365 4.94646 91.6113 4.87878C93.096 4.76276 94.5854 4.68541 96.089 4.63707C97.0563 4.60806 98.0282 4.59375 99.0005 4.59375C99.9727 4.59375 100.944 4.60845 101.912 4.63707C103.416 4.6858 104.905 4.76314 106.39 4.87878C129.022 8.42831 146.334 28.0088 146.334 51.6322C146.334 76.9048 126.526 97.5491 101.592 98.8935C100.737 98.8447 99.8706 98.8211 99.0001 98.8211C98.1295 98.8211 97.264 98.8455 96.4077 98.8935C95.8469 98.9225 95.2954 98.9611 94.7443 99.0145C70.4971 101.171 51.4244 121.598 51.4244 146.396C51.4244 169.193 67.552 188.3 88.9942 192.908C41.6185 187.893 4.58008 147.697 4.58008 99.0141Z" fill="#CD5465"/>
<path d="M109.004 192.909C108.139 193.001 107.263 193.083 106.388 193.15C106.383 193.155 106.379 193.155 106.374 193.15C104.894 193.266 103.409 193.344 101.91 193.392C100.943 193.421 99.9707 193.436 98.9984 193.436C98.0261 193.436 97.0546 193.421 96.087 193.392C94.588 193.344 93.1033 193.266 91.6232 193.15C91.6182 193.155 91.6135 193.155 91.6085 193.15C68.9763 189.601 51.6641 170.02 51.6641 146.397C51.6641 121.124 71.4719 100.48 96.4057 99.1358C96.4107 99.1308 96.4107 99.1358 96.4107 99.1358C97.2666 99.1845 98.1275 99.2081 98.998 99.2081C99.8686 99.2081 100.729 99.1837 101.585 99.1358C101.585 99.1358 101.585 99.1308 101.59 99.1358C102.151 99.1068 102.703 99.0681 103.254 99.0147C127.501 96.8579 146.574 76.4312 146.574 51.6328C146.574 28.8362 130.446 9.72953 109.004 5.12109C156.381 10.136 193.419 50.3318 193.419 99.0147C193.419 147.698 156.381 187.894 109.004 192.909Z" fill="#FECF80"/>
<path d="M172.373 32.6167C155.968 14.5039 133.634 3.12129 109.487 0.565692C109.114 0.525857 100.259 -0.210116 95.9414 0.0590576C94.29 0.161931 92.7543 0.194418 91.2564 0.311988C90.3874 0.379281 89.4627 0.464365 88.5117 0.565692C64.3654 3.12129 42.0321 14.5039 25.6268 32.6167C9.10085 50.8609 0 74.4411 0 99.0128C0 123.585 9.10085 147.165 25.6264 165.409C42.0321 183.521 64.3654 194.904 88.5125 197.46C88.6761 197.477 91.2255 197.72 91.4606 197.728C92.8947 197.837 94.3627 197.916 95.9515 197.967C96.9597 197.997 97.985 198.013 99.0002 198.013C100.015 198.013 101.041 197.997 102.059 197.966C103.637 197.916 105.105 197.837 106.54 197.728C106.662 197.723 106.783 197.714 106.903 197.701C107.724 197.636 108.593 197.554 109.489 197.46H109.488C133.634 194.904 155.968 183.521 172.374 165.409C188.899 147.164 198 123.584 198 99.0125C198 74.4407 188.899 50.8609 172.373 32.6167ZM9.15809 99.0128C9.15809 52.9277 43.6877 14.5198 89.4774 9.67312C90.3441 9.58107 91.1802 9.50373 91.9669 9.44262C93.327 9.33627 94.7232 9.26124 96.2257 9.21289C97.1423 9.18505 98.0763 9.17113 98.9994 9.17113C99.923 9.17113 100.856 9.18505 101.764 9.21251C103.21 9.2593 104.549 9.32969 105.853 9.42908C126.667 12.7779 141.754 30.4985 141.754 51.6313C141.754 74.2667 124.128 92.9653 101.584 94.3066C99.7907 94.2153 97.9173 94.2215 96.17 94.3193C95.5056 94.3537 94.8953 94.3982 94.338 94.4528C81.4246 95.601 69.4503 101.518 60.6213 111.114C51.7374 120.769 46.8447 133.299 46.8447 146.396C46.8447 158.36 51.0154 170.054 58.5897 179.329C29.0189 164.501 9.15809 133.965 9.15809 99.0128ZM108.523 188.353C108.523 188.353 108.522 188.353 108.521 188.353C107.684 188.442 106.877 188.517 106.121 188.576C106.086 188.578 106.051 188.58 106.016 188.583C104.662 188.689 103.271 188.764 101.773 188.813C99.9392 188.868 98.05 188.868 96.2357 188.813C94.7835 188.766 93.4404 188.694 92.1339 188.594C71.3275 185.24 56.2453 167.522 56.2453 146.394C56.2453 123.758 73.8708 105.058 96.4171 103.719C98.1958 103.81 100.026 103.806 101.798 103.708C101.808 103.707 101.818 103.707 101.828 103.706C102.493 103.672 103.103 103.627 103.66 103.573C116.574 102.424 128.548 96.5071 137.377 86.9116C146.261 77.2566 151.154 64.7265 151.154 51.6294C151.154 39.6651 146.983 27.9711 139.409 18.6959C168.98 33.524 188.841 64.0593 188.841 99.0117C188.842 145.098 154.312 183.506 108.523 188.353Z" fill="black"/>
<path d="M99.0017 70.7721C88.4486 70.7721 79.8633 62.1868 79.8633 51.6337C79.8633 41.0806 88.4486 32.4961 99.0017 32.4961C109.555 32.4961 118.14 41.0814 118.14 51.6337C118.14 62.186 109.555 70.7721 99.0017 70.7721Z" fill="#FECF80"/>
<path d="M98.9983 75.3482C85.9206 75.3482 75.2812 64.7089 75.2812 51.6311C75.2812 38.5534 85.9206 27.9141 98.9983 27.9141C112.076 27.9141 122.715 38.5534 122.715 51.6311C122.715 64.7089 112.076 75.3482 98.9983 75.3482ZM98.9983 37.0722C90.9703 37.0722 84.4397 43.6035 84.4397 51.6307C84.4397 59.658 90.9711 66.1893 98.9983 66.1893C107.026 66.1893 113.557 59.658 113.557 51.6307C113.557 43.6035 107.027 37.0722 98.9983 37.0722Z" fill="black"/>
<path d="M99.0017 165.534C88.4486 165.534 79.8633 156.949 79.8633 146.396C79.8633 135.844 88.4486 127.258 99.0017 127.258C109.555 127.258 118.14 135.843 118.14 146.396C118.14 156.949 109.555 165.534 99.0017 165.534Z" fill="#CD5465"/>
<path d="M98.9983 170.106C85.9206 170.106 75.2812 159.467 75.2812 146.389C75.2812 133.311 85.9206 122.672 98.9983 122.672C112.076 122.672 122.715 133.311 122.715 146.389C122.715 159.467 112.076 170.106 98.9983 170.106ZM98.9983 131.83C90.9703 131.83 84.4397 138.361 84.4397 146.389C84.4397 154.416 90.9711 160.947 98.9983 160.947C107.026 160.947 113.557 154.416 113.557 146.389C113.557 138.361 107.027 131.83 98.9983 131.83Z" fill="black"/>
<path d="M39.5986 54.6096C39.3008 54.6096 38.9987 54.5775 38.7009 54.518C38.4124 54.4584 38.1239 54.3714 37.8447 54.2569C37.5701 54.1424 37.3044 54.0005 37.0573 53.8358C36.8055 53.671 36.5719 53.4784 36.3611 53.268C36.1504 53.0572 35.9582 52.824 35.7888 52.5719C35.624 52.3248 35.4821 52.0544 35.3676 51.7798C35.2531 51.5052 35.1661 51.2167 35.1065 50.9236C35.047 50.6304 35.0195 50.3284 35.0195 50.0306C35.0195 49.7285 35.047 49.4307 35.1065 49.133C35.1661 48.8398 35.2531 48.5559 35.3676 48.2767C35.4821 48.0021 35.624 47.7364 35.7888 47.4893C35.9582 47.2375 36.1504 47.0039 36.3611 46.7885C36.5719 46.5777 36.8051 46.3902 37.0573 46.2208C37.3044 46.056 37.5701 45.9141 37.8447 45.7996C38.1239 45.6851 38.4124 45.5981 38.7009 45.5386C39.2915 45.4194 39.9006 45.4194 40.4912 45.5386C40.7843 45.5981 41.0728 45.6851 41.3474 45.7996C41.6267 45.9141 41.8924 46.056 42.1395 46.2208C42.3913 46.3902 42.6248 46.5781 42.8356 46.7885C43.0464 47.0035 43.2386 47.2371 43.4034 47.4893C43.5681 47.7364 43.71 48.0021 43.8245 48.2767C43.939 48.5559 44.026 48.8398 44.0856 49.133C44.1451 49.4307 44.1772 49.7281 44.1772 50.0306C44.1772 50.3284 44.1451 50.6304 44.0856 50.9236C44.026 51.2167 43.939 51.5052 43.8245 51.7798C43.71 52.0544 43.5681 52.3248 43.4034 52.5719C43.2386 52.8237 43.046 53.0572 42.8356 53.268C42.6248 53.4788 42.3916 53.671 42.1395 53.8358C41.8924 54.0005 41.6267 54.1424 41.3474 54.2569C41.0728 54.3714 40.7843 54.4584 40.4912 54.518C40.1984 54.5771 39.896 54.6096 39.5986 54.6096Z" fill="black"/>
<path d="M35.014 148.033C33.5773 148.033 32.1629 147.359 31.2707 146.097C21.6219 132.446 16.5215 116.392 16.5215 99.6721C16.5215 87.6359 19.1343 76.032 24.2865 65.1831C25.2642 63.1245 26.3444 61.0813 27.4961 59.1093C28.772 56.9261 31.5763 56.1901 33.7598 57.466C35.9438 58.7419 36.679 61.5465 35.4031 63.7297C34.3821 65.477 33.4249 67.2881 32.559 69.112C27.9935 78.7242 25.6788 89.0057 25.6788 99.6725C25.6788 114.489 30.1983 128.714 38.7484 140.811C40.2084 142.876 39.7172 145.733 37.652 147.193C36.8503 147.76 35.9275 148.033 35.014 148.033Z" fill="black"/>
<path d="M158.399 152.566C158.102 152.566 157.8 152.538 157.506 152.479C157.213 152.419 156.925 152.332 156.65 152.218C156.371 152.103 156.105 151.961 155.858 151.797C155.606 151.627 155.373 151.439 155.162 151.224C154.951 151.014 154.759 150.78 154.594 150.528C154.429 150.281 154.288 150.015 154.173 149.741C154.059 149.466 153.972 149.178 153.912 148.885C153.852 148.587 153.82 148.289 153.82 147.987C153.82 147.689 153.852 147.387 153.912 147.094C153.972 146.801 154.059 146.512 154.173 146.238C154.288 145.963 154.429 145.693 154.594 145.446C154.759 145.194 154.952 144.96 155.162 144.749C155.373 144.539 155.606 144.346 155.858 144.182C156.105 144.017 156.371 143.875 156.65 143.761C156.925 143.646 157.213 143.559 157.506 143.499C158.097 143.38 158.706 143.38 159.297 143.499C159.585 143.559 159.874 143.646 160.153 143.761C160.427 143.875 160.693 144.017 160.94 144.182C161.192 144.346 161.426 144.539 161.636 144.749C161.847 144.96 162.039 145.193 162.209 145.446C162.374 145.693 162.515 145.963 162.63 146.238C162.744 146.512 162.831 146.801 162.891 147.094C162.951 147.387 162.978 147.689 162.978 147.987C162.978 148.289 162.951 148.587 162.891 148.885C162.831 149.178 162.744 149.466 162.63 149.741C162.515 150.015 162.374 150.281 162.209 150.528C162.039 150.78 161.847 151.014 161.636 151.224C161.426 151.439 161.192 151.627 160.94 151.797C160.693 151.961 160.427 152.103 160.153 152.218C159.874 152.332 159.585 152.419 159.297 152.479C158.999 152.538 158.697 152.566 158.399 152.566Z" fill="black"/>
<path d="M166.547 141.174C165.763 141.174 164.968 140.973 164.241 140.548C162.057 139.272 161.322 136.467 162.598 134.284C163.619 132.537 164.576 130.726 165.442 128.902C170.007 119.29 172.322 109.008 172.322 98.3414C172.322 83.5249 167.802 69.2997 159.252 57.2031C157.792 55.1379 158.284 52.2807 160.349 50.8207C162.414 49.3607 165.271 49.8519 166.731 51.9171C176.38 65.5684 181.48 81.6217 181.48 98.3418C181.48 110.378 178.868 121.982 173.715 132.831C172.738 134.889 171.658 136.933 170.506 138.905C169.654 140.362 168.122 141.174 166.547 141.174Z" fill="black"/>
</svg>
