<svg width="90" height="90" viewBox="0 0 90 90" fill="none" xmlns="http://www.w3.org/2000/svg">
<g clip-path="url(#clip0_537_67)">
<path d="M49.2539 10.2656C49.2539 9.45702 48.6211 8.82422 47.8477 8.82422C47.0742 8.82422 46.4414 9.45702 46.4414 10.2656C46.4414 11.0742 47.0742 11.7071 47.8477 11.7071C48.6211 11.7071 49.2539 11.0391 49.2539 10.2656Z" fill="black"/>
<path d="M54.9141 41.7305C51.9258 41.7305 49.5352 39.3047 49.5352 36.3516C49.5352 33.3633 51.9609 30.9727 54.9141 30.9727C57.9023 30.9727 60.293 33.3985 60.293 36.3516C60.293 39.3399 57.8672 41.7305 54.9141 41.7305ZM54.9141 32.8008C52.9453 32.8008 51.3633 34.3828 51.3633 36.3516C51.3633 38.3203 52.9453 39.9024 54.9141 39.9024C56.8828 39.9024 58.4648 38.3203 58.4648 36.3516C58.4297 34.3828 56.8477 32.8008 54.9141 32.8008Z" fill="black"/>
<path d="M79.3125 12.4453H43.0664V16.8398H79.3125V12.4453Z" fill="black"/>
<path d="M59.028 11.0742C60.7507 11.0742 62.1569 9.66797 62.1569 7.91016C62.1569 6.15234 60.7507 4.74609 59.028 4.74609C57.3053 4.74609 55.9342 6.1875 55.9342 7.91016C55.8991 9.63281 57.3053 11.0742 59.028 11.0742Z" fill="black"/>
<path d="M52.6289 11.3203C53.7891 11.3203 54.668 10.4063 54.668 9.2461C54.668 8.08595 53.7539 7.17188 52.6289 7.17188C51.5039 7.17188 50.5898 8.08595 50.5898 9.2461C50.5898 10.4063 51.5391 11.3203 52.6289 11.3203Z" fill="black"/>
<path d="M15.2227 42.4688C15.2227 41.9414 15.6797 41.5899 16.1016 41.5899C16.6289 41.5899 16.9805 41.9766 16.9805 42.4688V52.8399H20.5664V52.8047H33.3281H35.0859V42.4688C35.0859 41.9414 35.543 41.5899 35.9648 41.5899C36.4922 41.5899 36.8438 42.0469 36.8438 42.4688V46.8984C36.8438 46.9336 36.8438 46.9687 36.8438 46.9687V47.0391C36.8438 47.6719 37.0547 48.2695 37.4063 48.7617C37.9688 49.5703 38.918 50.0977 39.9727 50.0977H55.125C56.8477 50.0977 58.2539 48.6914 58.2539 46.9687C58.2539 45.2461 56.8477 43.8398 55.125 43.8398H42.4336V41.0625C42.5039 35.7891 39.375 31.6406 34.2773 31.6406H17.7539C12.7266 31.6406 9.59766 35.7891 9.59766 40.957V52.875H15.1875V42.4688H15.2227Z" fill="black"/>
<path d="M83.6719 0.703125L83.6367 54.1055L6.89061 55.1602V0.703125H0.949219V89.332H89.6484V0.703125H83.6719Z" fill="black"/>
<path d="M68.1332 11.3555C70.9457 11.3555 73.266 9.03515 73.266 6.15234C73.266 3.26953 70.9809 0.949219 68.1332 0.949219C65.3207 0.949219 63.0356 3.26953 63.0356 6.15234C63.0004 9.03515 65.2856 11.3555 68.1332 11.3555Z" fill="black"/>
<path d="M26.1211 30.2344C30.1289 30.2344 33.3281 27.0352 33.3281 23.0273C33.3281 19.0195 30.1289 15.8203 26.1211 15.8203C22.1133 15.8203 18.9141 19.0195 18.9141 23.0273C18.9141 27.0352 22.1484 30.2344 26.1211 30.2344Z" fill="black"/>
<path d="M55.6172 24.75H54.1406V28.6172H55.6172V24.75Z" fill="black"/>
<path d="M63.6817 28.0288L62.5859 27.0391L59.9938 29.9089L61.0895 30.8986L63.6817 28.0288Z" fill="black"/>
<path d="M50.141 29.8855L47.5488 27.0156L46.4531 28.0054L49.0453 30.8752L50.141 29.8855Z" fill="black"/>
</g>
<defs>
<clipPath id="clip0_537_67">
<rect width="90" height="90" fill="white"/>
</clipPath>
</defs>
</svg>
