<svg width="90" height="90" viewBox="0 0 90 90" fill="none" xmlns="http://www.w3.org/2000/svg">
<path d="M69.45 42.448C69.9 42.448 70.5 42.298 70.8 41.998C72 41.248 72.3 39.598 71.55 38.398L62.1 23.998C61.95 23.698 61.8 23.548 61.5 23.398C60.45 22.498 58.8 22.798 57.9 23.848L47.7 37.048L35.7 19.198C35.55 18.898 35.25 18.748 34.95 18.448C33.75 17.698 32.1 17.998 31.35 19.198L18.45 38.398C18.15 38.848 18 39.298 18 39.898C18 41.248 19.2 42.448 20.55 42.448H69.45Z" fill="black"/>
<path d="M19.8 50.8516H70.65C72 50.8516 73.2 52.0516 73.2 53.4016C73.2 54.7516 72 55.9516 70.65 55.9516H19.8C18.45 55.9516 17.25 54.7516 17.25 53.4016C17.25 51.9016 18.45 50.8516 19.8 50.8516Z" fill="black"/>
<path d="M25.05 63.6016H65.55C66.9 63.6016 68.1 64.8016 68.1 66.1516C68.1 67.5016 66.9 68.7016 65.55 68.7016H25.05C23.7 68.7016 22.5 67.5016 22.5 66.1516C22.5 64.8016 23.55 63.6016 25.05 63.6016Z" fill="black"/>
<path d="M82.8 20.7C84 19.05 84.75 17.1 84.75 14.85C84.75 9.45 80.4 5.25 75.15 5.25C72.9 5.25 70.95 6 69.3 7.2C62.25 2.7 54 0 45 0C20.1 0 0 20.1 0 45C0 56.25 4.05 66.45 10.8 74.25C10.35 75.15 10.2 76.2 10.2 77.25C10.2 81.15 13.35 84.3 17.25 84.3C18.75 84.3 19.95 83.85 21.15 83.1C28.05 87.45 36.3 90 45 90C69.9 90 90 69.9 90 45C90 36 87.3 27.75 82.8 20.7ZM75.15 10.2C77.7 10.2 79.8 12.3 79.8 14.85C79.8 17.4 77.7 19.35 75.15 19.35C72.6 19.35 70.5 17.4 70.5 14.85C70.5 12.3 72.6 10.2 75.15 10.2ZM45 84.9C37.35 84.9 30.15 82.8 24.15 78.9C24.3 78.3 24.45 77.7 24.45 77.1C24.45 73.2 21.3 70.05 17.4 70.05C16.35 70.05 15.45 70.2 14.7 70.65C8.85 63.75 5.25 54.75 5.25 45C5.25 22.95 23.1 5.1 45.15 5.1C52.95 5.1 60.3 7.35 66.45 11.25C66 12.3 65.7 13.5 65.7 14.85C65.7 20.25 70.05 24.45 75.3 24.45C76.5 24.45 77.7 24.15 78.9 23.7C82.8 29.85 85.05 37.2 85.05 45C84.9 67.05 66.9 84.9 45 84.9Z" fill="black"/>
</svg>
