<svg width="90" height="90" viewBox="0 0 90 90" fill="none" xmlns="http://www.w3.org/2000/svg">
<g clip-path="url(#clip0_537_229)">
<path d="M51.6979 37.2119H5.62373C3.79719 37.2119 2.31641 35.7313 2.31641 33.9045V5.08467C2.31641 3.25795 3.79719 1.77734 5.62373 1.77734H51.6979C53.5245 1.77734 55.0053 3.25795 55.0053 5.08467V33.9047C55.0051 35.7311 53.5245 37.2119 51.6979 37.2119Z" fill="#EFEFEF"/>
<path d="M28.6608 10.1914L31.4597 16.6243L38.4427 17.2984L33.1894 21.9482L34.7064 28.7977L28.6608 25.2385L22.6153 28.7977L24.1321 21.9482L18.8789 17.2984L25.862 16.6243L28.6608 10.1914Z" fill="#F4AD47"/>
<path d="M84.4603 44.4258H65.5635C63.7832 44.4258 62.3398 45.8691 62.3398 47.6494V84.9984C62.3398 86.7787 63.7832 88.222 65.5635 88.222H84.4603C86.2406 88.222 87.684 86.7787 87.684 84.9984V47.6494C87.6838 45.8691 86.2406 44.4258 84.4603 44.4258Z" fill="#EFEFEF"/>
<path d="M87.6858 51.9844H62.3418V77.3283H87.6858V51.9844Z" fill="#61C7D2"/>
<path d="M51.6968 0H5.62299C2.81875 0 0.537109 2.28146 0.537109 5.0857V33.9057C0.537109 36.71 2.81875 38.9914 5.62299 38.9914H18.0544V44.6476H14.1385C13.1563 44.6476 12.36 45.4438 12.36 46.4261C12.36 47.4084 13.1563 48.2047 14.1385 48.2047H19.833H37.487H43.1815C44.1637 48.2047 44.96 47.4084 44.96 46.4261C44.96 45.4438 44.1637 44.6476 43.1815 44.6476H39.2656V38.9914H51.697C54.5013 38.9914 56.7829 36.71 56.7829 33.9057V5.0857C56.7827 2.28146 54.5014 0 51.6968 0ZM35.7085 44.6477H21.6115V38.9916H35.7085V44.6477ZM53.2258 33.9057C53.2258 34.7488 52.5399 35.4343 51.6968 35.4343H37.4869H19.833H5.62299C4.77994 35.4343 4.09404 34.7484 4.09404 33.9057V5.0857C4.09404 4.24266 4.77994 3.55711 5.62299 3.55711H51.6968C52.5399 3.55711 53.2258 4.24301 53.2258 5.0857V33.9057Z" fill="#231F20"/>
<path d="M38.613 15.5293L32.6723 14.9558L30.2912 9.48299C30.0087 8.834 29.3683 8.41406 28.6603 8.41406C27.9522 8.41406 27.3118 8.834 27.0294 9.48299L24.6482 14.9558L18.7075 15.5293C18.0028 15.5974 17.4059 16.0767 17.1868 16.7501C16.9678 17.4236 17.1694 18.1624 17.6994 18.6315L22.1688 22.5871L20.8782 28.4143C20.7253 29.1054 20.9966 29.8218 21.5692 30.2377C22.1418 30.6536 22.9071 30.6906 23.5169 30.3315L28.6601 27.3033L33.8033 30.3315C34.0828 30.4961 34.3944 30.5774 34.7054 30.5774C35.0735 30.5774 35.4405 30.4634 35.7509 30.2378C36.3236 29.8216 36.595 29.1056 36.4419 28.4145L35.1513 22.5873L39.6207 18.6317C40.1507 18.1624 40.3522 17.4234 40.1333 16.7503C39.9148 16.0769 39.3177 15.5974 38.613 15.5293ZM32.0103 20.6175C31.5264 21.0459 31.3126 21.7028 31.4525 22.334L32.0857 25.1924L29.5627 23.707C29.2845 23.5432 28.9724 23.4611 28.6603 23.4611C28.3481 23.4611 28.0362 23.5432 27.7578 23.707L25.2348 25.1924L25.868 22.334C26.0079 21.7031 25.7941 21.0459 25.3102 20.6175L23.1182 18.6771L26.0322 18.3958C26.6755 18.3337 27.2341 17.9275 27.492 17.3351L28.6601 14.6504L29.8282 17.3351C30.086 17.9275 30.645 18.3337 31.288 18.3958L34.2019 18.6771L32.0103 20.6175Z" fill="#231F20"/>
<path d="M84.4614 42.6484H65.5645C62.8065 42.6484 60.5625 44.8923 60.5625 47.6505V51.9856V77.3296V84.9994C60.5625 87.7576 62.8065 90.0014 65.5645 90.0014H84.4614C87.2194 90.0014 89.4634 87.7576 89.4634 84.9994V77.3296V51.9856V47.6505C89.4634 44.8921 87.2196 42.6484 84.4614 42.6484ZM65.5645 46.2054H84.4614C85.2582 46.2054 85.9065 46.8537 85.9065 47.6505V50.207H64.1194V47.6505C64.1194 46.8537 64.7677 46.2054 65.5645 46.2054ZM85.9063 75.551H64.1194V53.7641H85.9063V75.551ZM84.4614 86.4443H65.5645C64.7677 86.4443 64.1194 85.7961 64.1194 84.9992V79.1079H85.9063V84.9992C85.9063 85.7961 85.2582 86.4443 84.4614 86.4443Z" fill="#231F20"/>
<path d="M75.4581 80.9961H74.1243C73.142 80.9961 72.3457 81.7924 72.3457 82.7747C72.3457 83.7569 73.142 84.5532 74.1243 84.5532H75.4581C76.4404 84.5532 77.2366 83.7569 77.2366 82.7747C77.2366 81.7924 76.4404 80.9961 75.4581 80.9961Z" fill="#231F20"/>
<path d="M64.0345 18.4185C72.2546 22.2432 78.6657 29.3412 81.6237 37.8931C81.8782 38.629 82.5671 39.0907 83.3047 39.0907C83.4975 39.0907 83.6937 39.0591 83.886 38.9926C84.8143 38.6717 85.3067 37.6588 84.9853 36.7303C81.7137 27.2726 74.6246 19.4227 65.5351 15.1936C64.6452 14.7797 63.5868 15.1651 63.1725 16.0558C62.7578 16.946 63.1438 18.0038 64.0345 18.4185Z" fill="#231F20"/>
<path d="M49.8909 82.4429C33.3743 82.4429 19.444 70.6345 16.7679 54.3651C16.6085 53.3958 15.6932 52.74 14.7245 52.8987C13.7554 53.0581 13.0987 53.9731 13.2583 54.9421C14.6701 63.5259 19.1055 71.3872 25.7468 77.0777C32.4618 82.8312 41.0363 85.9999 49.8911 85.9999C50.8734 85.9999 51.6696 85.2036 51.6696 84.2213C51.6696 83.2391 50.873 82.4429 49.8909 82.4429Z" fill="#231F20"/>
</g>
<defs>
<clipPath id="clip0_537_229">
<rect width="90" height="90" fill="white"/>
</clipPath>
</defs>
</svg>
