<svg width="90" height="90" viewBox="0 0 90 90" fill="none" xmlns="http://www.w3.org/2000/svg">
<path d="M85.5 43.5V10.5C85.5 6.3645 82.1355 3 78 3H12C7.8645 3 4.5 6.3645 4.5 10.5V33C2.019 33 0 35.019 0 37.5V82.5C0 84.981 2.019 87 4.5 87H37.5C39.981 87 42 84.981 42 82.5H54.5715C55.986 82.5 57.2895 81.855 58.1475 80.7315C59.0055 79.608 59.2845 78.18 58.9125 76.8165L55.9635 66H64.5V82.5C64.5 84.981 66.519 87 69 87H85.5C87.981 87 90 84.981 90 82.5V48C90 45.519 87.981 43.5 85.5 43.5ZM39 82.5C39 83.3265 38.3265 84 37.5 84H4.5C3.6735 84 3 83.3265 3 82.5V79.5H39V82.5ZM39 76.5H3V43.5H39V76.5ZM39 40.5H3V37.5C3 36.6735 3.6735 36 4.5 36H37.5C38.3265 36 39 36.6735 39 37.5V40.5ZM56.019 77.6055C56.1435 78.06 56.0505 78.5355 55.764 78.9105C55.4775 79.2855 55.044 79.5 54.5715 79.5H42V76.5H55.7175L56.019 77.6055ZM42 73.5V66H52.854L54.9 73.5H42ZM64.5 63H42V54H64.5V63ZM64.5 48V51H42V37.5C42 35.019 39.981 33 37.5 33H7.5V10.5C7.5 8.019 9.519 6 12 6H78C80.481 6 82.5 8.019 82.5 10.5V43.5H69C66.519 43.5 64.5 45.519 64.5 48ZM87 82.5C87 83.3265 86.3265 84 85.5 84H69C68.1735 84 67.5 83.3265 67.5 82.5V79.5H87V82.5ZM87 76.5H67.5V54H87V76.5ZM87 51H67.5V48C67.5 47.1735 68.1735 46.5 69 46.5H85.5C86.3265 46.5 87 47.1735 87 48V51Z" fill="#6440CA"/>
<path d="M13.9395 58.9378L7.93945 64.9379L10.0608 67.0592L16.0608 61.0591L13.9395 58.9378Z" fill="#6440CA"/>
<path d="M31.9377 51.438L13.9375 69.4382L16.0588 71.5595L34.059 53.5593L31.9377 51.438Z" fill="#6440CA"/>
<path d="M25.937 46.9404L16.9375 55.9399L19.0588 58.0612L28.0583 49.0617L25.937 46.9404Z" fill="#6440CA"/>
<path d="M78.4342 57.4416L70.9355 64.9402L73.0568 67.0615L80.5555 59.5629L78.4342 57.4416Z" fill="#6440CA"/>
<path d="M81.4342 63.4479L73.9355 70.9466L76.0568 73.0679L83.5555 65.5692L81.4342 63.4479Z" fill="#6440CA"/>
<path d="M48.437 19.9401L39.4375 28.9396L41.5588 31.0609L50.5583 22.0614L48.437 19.9401Z" fill="#6440CA"/>
<path d="M61.937 16.9401L52.9375 25.9396L55.0588 28.0609L64.0583 19.0614L61.937 16.9401Z" fill="#6440CA"/>
<path d="M49.9376 28.9412L43.9375 34.9413L46.0588 37.0626L52.0589 31.0625L49.9376 28.9412Z" fill="#6440CA"/>
<path d="M57.4446 10.9437L51.4297 16.9586L53.551 19.0799L59.5659 13.065L57.4446 10.9437Z" fill="#6440CA"/>
<path d="M13.5 9H10.5V12H13.5V9Z" fill="#6440CA"/>
<path d="M19.5 9H16.5V12H19.5V9Z" fill="#6440CA"/>
<path d="M25.5 9H22.5V12H25.5V9Z" fill="#6440CA"/>
</svg>
