<svg width="101" height="90" viewBox="0 0 101 90" fill="none" xmlns="http://www.w3.org/2000/svg">
<path d="M71.5833 11.4237L70.3066 9.64453L68.2624 11.1114L69.539 12.8906L71.5833 11.4237Z" fill="black"/>
<path d="M97.593 59.2869C95.7091 57.9958 93.3135 57.7169 91.1838 58.5398L91.1365 58.5582L90.2148 58.999C88.6546 57.0529 86.2014 55.9723 83.6681 56.1932C82.7552 56.269 81.865 56.5118 81.0156 56.9183L80.5586 57.1399C79.813 55.8427 78.6406 54.8673 77.2144 54.3714C75.6455 53.8259 73.9585 53.9244 72.4655 54.6486L62.2625 59.5852C61.4718 59.2685 60.6099 59.0927 59.7073 59.0927H38.3843L37.0869 59.1039C29.1823 59.1733 21.7336 62.6075 16.5517 68.5481H12.1814V65.4428H0V67.6325H9.99165V87.8088H0V89.9985H12.1814V86.7872H18.013L56.7102 89.1125C56.8814 89.1228 57.0526 89.1279 57.2241 89.1279C58.5152 89.1279 59.7982 88.8371 60.9612 88.2778L96.2259 71.4326C97.1121 71.0818 97.9013 70.564 98.5729 69.8926C99.8806 68.5851 100.601 66.8462 100.601 64.9961C100.601 62.7124 99.4762 60.578 97.593 59.2869ZM80.5378 60.0704L82.1563 59.2852C82.7101 59.0202 83.2921 58.8608 83.8908 58.8113C85.336 58.6847 86.7379 59.2031 87.7474 60.1788L66.662 70.2611H65.1197C65.8829 69.2961 66.3933 68.1233 66.5518 66.8423L80.5378 60.0704ZM73.611 57.0129C74.4728 56.5951 75.4458 56.5381 76.3512 56.853C77.1143 57.1184 77.7498 57.6229 78.1816 58.2904L66.3217 64.0339C66.0153 62.9999 65.4729 62.0668 64.7569 61.2969L73.611 57.0129ZM96.7151 68.0341C96.2914 68.4579 95.791 68.7833 95.2283 69.0009L95.1814 69.0191L59.8258 85.9078C58.9076 86.3493 57.8845 86.5503 56.8676 86.489L18.1314 84.1613L12.1816 84.1589V71.1751H17.7734L18.1673 70.7026C22.867 65.0657 29.7713 61.7955 37.1101 61.7309L38.3959 61.7197H59.7075C62.0626 61.7197 63.9786 63.6356 63.9786 65.9907C63.9786 68.3407 62.0705 70.2528 59.7222 70.2609H43.5488L37.1795 72.3495L37.9982 74.8463L43.9686 72.8886H44.8776V72.8893H59.7075C59.7174 72.8893 59.7272 72.8886 59.7371 72.8886H67.258L92.176 60.9735C93.5045 60.4762 94.9351 60.65 96.1072 61.4541C97.2932 62.2672 97.9731 63.5578 97.9731 64.9954C97.9729 66.1439 97.5262 67.2231 96.7151 68.0341Z" fill="black"/>
<path d="M8.62921 69.5H6.43945V71.884H8.62921V69.5Z" fill="black"/>
<path d="M8.62921 73.5977H6.43945V86.0423H8.62921V73.5977Z" fill="black"/>
<path d="M52.52 40.9531V52.3243L50.2085 50.0128L48.6602 51.5612L53.6149 56.5162L58.5955 51.5354L57.0474 49.9868L54.7098 52.3243V40.9531H52.52Z" fill="black"/>
<path d="M43.2633 44.4657L40.9389 42.1413L39.3905 43.6896L44.3453 48.6444L49.3259 43.6636L47.7775 42.1152L45.4531 44.4396V39.0922H61.7749V44.4657L59.4504 42.1413L57.9023 43.6896L62.8571 48.6444L67.8377 43.6636L66.2895 42.1152L63.9649 44.4399V39.0922H85.1891V0H22.0391V39.0922H43.2633V44.4657ZM26.3176 36.9025L45.8047 21.7056L44.4583 19.9787L24.229 35.7544V3.22814L50.4387 22.036C51.3886 22.7174 52.5015 23.0582 53.6143 23.0582C54.7274 23.0582 55.8404 22.7174 56.7901 22.036L67.5675 14.3022L66.2908 12.523L55.5135 20.2568C54.3777 21.0721 52.8516 21.0721 51.7153 20.2568L26.5377 2.18976H80.6902L72.1775 8.29831L73.4542 10.0775L82.9991 3.22814V35.7537L62.7692 19.9787L61.423 21.7056L80.9114 36.9025H63.9646V33.7821H61.7749V36.9025H45.4531V33.7821H43.2633V36.9025H26.3176Z" fill="black"/>
<path d="M54.7093 32.6875H52.5195V35.8627H54.7093V32.6875Z" fill="black"/>
<path d="M45.4534 28.6523H43.2637V31.8275H45.4534V28.6523Z" fill="black"/>
<path d="M63.9652 28.6523H61.7754V31.8275H63.9652V28.6523Z" fill="black"/>
</svg>
