<svg width="90" height="90" viewBox="0 0 90 90" fill="none" xmlns="http://www.w3.org/2000/svg">
<g clip-path="url(#clip0_537_275)">
<path d="M67.7229 8.75781H0V57.234H67.7229V8.75781Z" fill="#F2B851"/>
<path d="M0 10.5451V2.11634C0 0.952001 0.952001 0 2.11634 0H65.5995C66.7639 0 67.7159 0.952001 67.7159 2.11634V10.5451H0Z" fill="black"/>
<path d="M62.3805 8.18357H22.6875L26.4857 2.36328H62.3805V8.18357Z" fill="white"/>
<path d="M7.13002 6.99442C8.1241 6.99442 8.92997 6.18856 8.92997 5.19447C8.92997 4.20039 8.1241 3.39453 7.13002 3.39453C6.13594 3.39453 5.33008 4.20039 5.33008 5.19447C5.33008 6.18856 6.13594 6.99442 7.13002 6.99442Z" fill="#E04F5F"/>
<path d="M11.9015 6.99442C12.8956 6.99442 13.7014 6.18856 13.7014 5.19447C13.7014 4.20039 12.8956 3.39453 11.9015 3.39453C10.9074 3.39453 10.1016 4.20039 10.1016 5.19447C10.1016 6.18856 10.9074 6.99442 11.9015 6.99442Z" fill="#F2B851"/>
<path d="M16.673 6.99442C17.6671 6.99442 18.4729 6.18856 18.4729 5.19447C18.4729 4.20039 17.6671 3.39453 16.673 3.39453C15.6789 3.39453 14.873 4.20039 14.873 5.19447C14.873 6.18856 15.6789 6.99442 16.673 6.99442Z" fill="#25B6D2"/>
<path d="M28.5119 4.20703L28.7622 5.29262C28.817 5.54855 28.8704 5.8087 28.914 6.06885H28.9239C28.9731 5.8087 29.0532 5.54293 29.1221 5.29825L29.4315 4.20703H29.9237L30.2232 5.26872C30.2977 5.54855 30.361 5.8087 30.4159 6.06885H30.4257C30.4637 5.8087 30.5185 5.54855 30.5818 5.26872L30.8476 4.20703H31.441L30.6901 6.60039H30.1304L29.8463 5.6273C29.7718 5.377 29.7184 5.1506 29.6635 4.86092H29.6537C29.6045 5.15481 29.5412 5.39106 29.4723 5.6273L29.1671 6.60039H28.6019L27.8945 4.20703H28.5119Z" fill="#25B6D2"/>
<path d="M32.275 4.20703L32.5253 5.29262C32.5801 5.54855 32.6336 5.8087 32.6772 6.06885H32.6884C32.7362 5.8087 32.8164 5.54293 32.8853 5.29825L33.1946 4.20703H33.6868L33.9863 5.26872C34.0609 5.54855 34.1241 5.8087 34.179 6.06885H34.1888C34.2268 5.8087 34.2816 5.54855 34.3449 5.26872L34.6107 4.20703H35.2055L34.4518 6.60039H33.8921L33.6081 5.6273C33.5335 5.377 33.4801 5.1506 33.4253 4.86092H33.4154C33.3662 5.15481 33.3029 5.39106 33.234 5.6273L32.9289 6.60039H32.3636L31.6562 4.20703H32.275Z" fill="#25B6D2"/>
<path d="M36.0406 4.20703L36.2909 5.29262C36.3458 5.54855 36.3992 5.8087 36.4428 6.06885H36.454C36.5018 5.8087 36.582 5.54293 36.6509 5.29825L36.9603 4.20703H37.4524L37.752 5.26872C37.8265 5.54855 37.8898 5.8087 37.9446 6.06885H37.9545C37.9924 5.8087 38.0473 5.54855 38.1105 5.26872L38.3763 4.20703H38.9711L38.2188 6.60039H37.6577L37.3737 5.6273C37.2992 5.377 37.2457 5.1506 37.1909 4.86092H37.181C37.1318 5.15481 37.0685 5.39106 36.9996 5.6273L36.6945 6.60039H36.1292L35.4219 4.20703H36.0406Z" fill="#25B6D2"/>
<path d="M39.0703 6.26702C39.0703 6.04062 39.2278 5.87891 39.4444 5.87891C39.6651 5.87891 39.8184 6.0364 39.8184 6.26702C39.8184 6.48779 39.6722 6.65513 39.4444 6.65513C39.2236 6.65513 39.0703 6.48779 39.0703 6.26702Z" fill="#25B6D2"/>
<path d="M57.7426 6.95394C56.6626 6.95394 55.7852 6.07506 55.7852 4.9965C55.7852 3.91794 56.6626 3.03906 57.7426 3.03906C58.8226 3.03906 59.7014 3.91794 59.7014 4.9965C59.7014 6.07506 58.8212 6.95394 57.7426 6.95394ZM57.7426 3.74217C57.0521 3.74217 56.4883 4.30465 56.4883 4.9965C56.4883 5.68835 57.0507 6.25084 57.7426 6.25084C58.4344 6.25084 58.9983 5.68835 58.9983 4.9965C58.9983 4.30465 58.4344 3.74217 57.7426 3.74217Z" fill="black"/>
<path d="M58.5489 6.29634L59.6543 7.40234L60.1516 6.90532L59.0462 5.79931L58.5489 6.29634Z" fill="black"/>
<path d="M67.7229 55.5469H0V57.2357H67.7229V55.5469Z" fill="black"/>
<path d="M45.3269 56.1591H22.3945L25.5697 53.7461H42.1531L45.3269 56.1591Z" fill="black"/>
<path d="M90.0002 41.5234H22.2773V89.9996H90.0002V41.5234Z" fill="#25B6D2"/>
<path d="M22.2773 43.3108V34.882C22.2773 33.7176 23.2293 32.7656 24.3937 32.7656H87.8769C89.0412 32.7656 89.9932 33.7176 89.9932 34.882V43.3108H22.2773Z" fill="black"/>
<path d="M84.6564 40.9478H44.9648L48.7616 35.1289H84.6564V40.9478Z" fill="white"/>
<path d="M29.4074 39.76C30.4014 39.76 31.2073 38.9542 31.2073 37.9601C31.2073 36.966 30.4014 36.1602 29.4074 36.1602C28.4133 36.1602 27.6074 36.966 27.6074 37.9601C27.6074 38.9542 28.4133 39.76 29.4074 39.76Z" fill="#E04F5F"/>
<path d="M34.1769 39.76C35.171 39.76 35.9768 38.9542 35.9768 37.9601C35.9768 36.966 35.171 36.1602 34.1769 36.1602C33.1828 36.1602 32.377 36.966 32.377 37.9601C32.377 38.9542 33.1828 39.76 34.1769 39.76Z" fill="#F2B851"/>
<path d="M38.9484 39.76C39.9425 39.76 40.7483 38.9542 40.7483 37.9601C40.7483 36.966 39.9425 36.1602 38.9484 36.1602C37.9543 36.1602 37.1484 36.966 37.1484 37.9601C37.1484 38.9542 37.9543 39.76 38.9484 39.76Z" fill="#25B6D2"/>
<path d="M50.7881 36.9727L51.0384 38.0582C51.0933 38.3142 51.1467 38.5743 51.1903 38.8345H51.2001C51.2493 38.5743 51.3295 38.3086 51.3984 38.0639L51.7078 36.9727H52.1999L52.4995 38.0343C52.574 38.3142 52.6373 38.5743 52.6921 38.8345H52.702C52.7399 38.5743 52.7948 38.3142 52.858 38.0343L53.1238 36.9727H53.7158L52.9649 39.366H52.4052L52.1212 38.3929C52.0467 38.1426 51.9932 37.9162 51.9384 37.6265H51.9285C51.8793 37.9204 51.816 38.1567 51.7471 38.3929L51.442 39.366H50.8753L50.168 36.9727H50.7881Z" fill="#25B6D2"/>
<path d="M54.5509 36.9727L54.8012 38.0582C54.8561 38.3142 54.9095 38.5743 54.9531 38.8345H54.9643C55.0122 38.5743 55.0923 38.3086 55.1612 38.0639L55.4706 36.9727H55.9628L56.2623 38.0343C56.3368 38.3142 56.4001 38.5743 56.4549 38.8345H56.4648C56.5027 38.5743 56.5576 38.3142 56.6209 38.0343L56.8866 36.9727H57.4815L56.7291 39.366H56.1695L55.8854 38.3929C55.8109 38.1426 55.7574 37.9162 55.7026 37.6265H55.6928C55.6435 37.9204 55.5803 38.1567 55.5114 38.3929L55.2062 39.366H54.6409L53.9336 36.9727H54.5509Z" fill="#25B6D2"/>
<path d="M58.3165 36.9727L58.5668 38.0582C58.6217 38.3142 58.6751 38.5743 58.7187 38.8345H58.73C58.7778 38.5743 58.8579 38.3086 58.9268 38.0639L59.2362 36.9727H59.7284L60.0279 38.0343C60.1024 38.3142 60.1657 38.5743 60.2205 38.8345H60.2304C60.2684 38.5743 60.3232 38.3142 60.3865 38.0343L60.6522 36.9727H61.2471L60.4948 39.366H59.9351L59.651 38.3929C59.5765 38.1426 59.5231 37.9162 59.4682 37.6265H59.4584C59.4092 37.9204 59.3459 38.1567 59.277 38.3929L58.9718 39.366H58.4065L57.6992 36.9727H58.3165Z" fill="#25B6D2"/>
<path d="M61.3477 39.0326C61.3477 38.8062 61.5052 38.6445 61.7217 38.6445C61.9425 38.6445 62.0958 38.802 62.0958 39.0326C62.0958 39.2534 61.9495 39.4208 61.7217 39.4208C61.5009 39.4222 61.3477 39.2548 61.3477 39.0326Z" fill="#25B6D2"/>
<path d="M80.0194 39.7196C78.9394 39.7196 78.0605 38.8407 78.0605 37.7621C78.0605 36.6836 78.9394 35.8047 80.0194 35.8047C81.0994 35.8047 81.9782 36.6836 81.9782 37.7621C81.9782 38.8407 81.0979 39.7196 80.0194 39.7196ZM80.0194 36.5078C79.3275 36.5078 78.7636 37.0703 78.7636 37.7621C78.7636 38.454 79.3261 39.0165 80.0194 39.0165C80.7126 39.0165 81.2751 38.454 81.2751 37.7621C81.2751 37.0703 80.7112 36.5078 80.0194 36.5078Z" fill="black"/>
<path d="M80.8263 39.062L81.9316 40.168L82.4289 39.6709L81.3236 38.5649L80.8263 39.062Z" fill="black"/>
<path d="M90.0002 88.3086H22.2773V89.9974H90.0002V88.3086Z" fill="black"/>
<path d="M67.6043 88.9223H44.6719L47.8457 86.5078H64.4291L67.6043 88.9223Z" fill="black"/>
</g>
<defs>
<clipPath id="clip0_537_275">
<rect width="90" height="90" fill="white"/>
</clipPath>
</defs>
</svg>
