<svg width="90" height="90" viewBox="0 0 90 90" fill="none" xmlns="http://www.w3.org/2000/svg">
<path d="M35.0994 16.5716C35.0994 16.5716 35.0994 17.1352 35.0994 17.4336C35.0994 22.9219 39.5481 27.3705 45.0363 27.3705C50.5245 27.3705 54.9732 22.9219 54.9732 17.4336C54.9732 17.1352 54.9732 16.5716 54.9732 16.5716H35.0994ZM58.8538 11.7162V14.4868H31.1464V11.7162H33.086C33.4579 7.12477 36.4149 3.26496 40.4997 1.59328V7.56H42.2315V1.0343C43.1312 0.818437 44.0702 0.703125 45.0363 0.703125C45.9778 0.703125 46.8933 0.813867 47.7722 1.01883V7.56H49.504V1.56375C53.625 3.21996 56.6129 7.0984 56.987 11.7162H58.8538ZM85.1155 47.122C83.7374 45.8037 81.9258 45.122 80.0154 45.2078C76.3057 45.3716 73.4 48.4872 73.4 52.3013V56.3945H69.9364V42.5408C69.9364 35.7054 64.2028 30.2305 57.3941 30.2305H54.7015L47.4241 42.1945L46.3852 33.0764L47.4241 30.2038H42.5754L43.6142 33.0764L42.5754 42.1945L35.3022 30.2302H32.6058C25.7703 30.2302 20.0634 35.7318 20.0634 42.5405V56.3941H16.5998V52.2984C16.5998 48.4843 13.6942 45.3684 9.98482 45.205C8.07583 45.122 6.26318 45.8005 4.8847 47.1196C3.50552 48.439 2.74614 50.2168 2.74614 52.1251V82.1728H2.74896C2.69622 84.0389 3.37333 85.8034 4.66321 87.1541C5.98333 88.5361 7.76224 89.2972 9.67298 89.2972H80.3269C82.2376 89.2972 84.0168 88.5361 85.3366 87.1538C86.6261 85.8034 87.3033 84.0396 87.2512 82.1742L87.2537 52.1276C87.2537 50.219 86.4943 48.4418 85.1155 47.122ZM59.8926 44.9648C60.4664 44.9648 60.9315 45.43 60.9315 46.0037V56.3941H58.8534V46.0037C58.8538 45.4303 59.3189 44.9648 59.8926 44.9648ZM29.0683 46.0041C29.0683 45.4303 29.5335 44.9652 30.1072 44.9652C30.681 44.9652 31.1461 45.4303 31.1461 46.0041V56.3945H29.068L29.0683 46.0041ZM5.51681 52.1248C5.51681 50.9797 5.97243 49.9131 6.80036 49.1214C7.58118 48.374 8.57646 47.9088 9.86282 47.9728C12.0495 48.0814 13.8292 50.0098 13.8292 52.2984V76.827C12.5467 75.8598 10.9818 75.3754 9.34743 75.4502C7.92079 75.516 6.59786 76.0272 5.51681 76.8456V52.1248ZM83.3331 85.2399C82.541 86.0692 81.4736 86.5262 80.3269 86.5262H9.67298C8.52654 86.5262 7.45884 86.0695 6.66677 85.2399C5.8754 84.4112 5.46829 83.3214 5.52103 82.1718C5.61876 80.0525 7.35513 78.3158 9.4747 78.2181C10.6264 78.1668 11.7142 78.5718 12.5428 79.3638C13.3721 80.1559 13.8292 81.2233 13.8292 82.37H16.5998V59.1652H20.0634V68.5164C20.0634 70.9105 22.1717 72.6725 24.5659 72.6725C26.96 72.6725 29.0683 70.9105 29.0683 68.5164V59.1652H60.9319V68.5164C60.9319 70.9105 63.0402 73.0188 65.4343 73.0188C67.8284 73.0188 69.9368 70.9105 69.9368 68.5164V59.1652H73.4004V82.37H76.171C76.171 81.2236 76.6281 80.1559 77.4574 79.3638C78.286 78.5721 79.3706 78.1643 80.5255 78.2181C82.6447 78.3155 84.3814 80.0522 84.4792 82.1718C84.5319 83.3214 84.1248 84.4112 83.3331 85.2399ZM84.483 76.8459C83.402 76.0275 82.2172 75.4429 80.3226 75.4429C78.8074 75.4429 77.367 75.9252 76.171 76.827V52.3013C76.171 50.0126 77.9503 48.072 80.1374 47.9756C81.2838 47.9254 82.3726 48.3325 83.1998 49.1238C84.0274 49.9156 84.483 50.9825 84.483 52.1272V76.8459Z" fill="#6440CA"/>
</svg>
