<svg width="150" height="150" viewBox="0 0 150 150" fill="none" xmlns="http://www.w3.org/2000/svg">
<g clip-path="url(#clip0_537_548)">
<path d="M75 150C116.421 150 150 116.421 150 75C150 33.5786 116.421 0 75 0C33.5786 0 0 33.5786 0 75C0 116.421 33.5786 150 75 150Z" fill="#E0E0E0"/>
<path d="M131.25 48.0469H18.75V116.016H131.25V48.0469Z" fill="#3B3B3B"/>
<path d="M131.25 33.9844H18.75V48.0703H131.25V33.9844Z" fill="black"/>
<path d="M28.4598 42.9898C29.5432 42.9898 30.4215 42.1116 30.4215 41.0281C30.4215 39.9447 29.5432 39.0664 28.4598 39.0664C27.3763 39.0664 26.498 39.9447 26.498 41.0281C26.498 42.1116 27.3763 42.9898 28.4598 42.9898Z" fill="#00C454"/>
<path d="M34.3426 42.9898C35.426 42.9898 36.3043 42.1116 36.3043 41.0281C36.3043 39.9447 35.426 39.0664 34.3426 39.0664C33.2592 39.0664 32.3809 39.9447 32.3809 41.0281C32.3809 42.1116 33.2592 42.9898 34.3426 42.9898Z" fill="white"/>
<path d="M40.2195 42.9898C41.303 42.9898 42.1812 42.1116 42.1812 41.0281C42.1812 39.9447 41.303 39.0664 40.2195 39.0664C39.1361 39.0664 38.2578 39.9447 38.2578 41.0281C38.2578 42.1116 39.1361 42.9898 40.2195 42.9898Z" fill="#666666"/>
<path d="M117.189 44.4742H56.3477L60.55 37.5859H121.394L117.189 44.4742Z" fill="#666666"/>
<path d="M64.9742 39.4883L65.382 41.0539C65.4711 41.3961 65.5531 41.7148 65.6117 42.0336H65.6305C65.7008 41.7219 65.8016 41.3914 65.9047 41.0609L66.4062 39.4883H66.8773L67.3555 41.0281C67.4703 41.3961 67.5594 41.7219 67.6273 42.0336H67.6484C67.6977 41.7219 67.782 41.3984 67.8852 41.0352L68.3258 39.4883H68.8789L67.8852 42.568H67.3742L66.9031 41.0984C66.7953 40.7539 66.7063 40.4492 66.6313 40.0836H66.6172C66.5422 40.4539 66.4461 40.7727 66.3383 41.1031L65.8414 42.568H65.3305L64.4023 39.4883H64.9742Z" fill="white"/>
<path d="M69.7277 39.4883L70.1355 41.0539C70.2246 41.3961 70.3066 41.7148 70.3652 42.0336H70.3863C70.4543 41.7219 70.5574 41.3914 70.6582 41.0609L71.1621 39.4883H71.6332L72.109 41.0281C72.2238 41.3961 72.3129 41.7219 72.3832 42.0336H72.402C72.4512 41.7219 72.5379 41.3984 72.6387 41.0352L73.0793 39.4883H73.6324L72.6387 42.568H72.1301L71.659 41.0984C71.5512 40.7539 71.4621 40.4492 71.3848 40.0836H71.373C71.2957 40.4539 71.202 40.7727 71.0918 41.1031L70.5949 42.568H70.0863L69.1582 39.4883H69.7277Z" fill="white"/>
<path d="M74.4781 39.4883L74.8859 41.0539C74.975 41.3961 75.057 41.7148 75.1156 42.0336H75.1367C75.2047 41.7219 75.3078 41.3914 75.4086 41.0609L75.9125 39.4883H76.3836L76.8594 41.0281C76.9742 41.3961 77.0633 41.7219 77.1336 42.0336H77.1523C77.2016 41.7219 77.2883 41.3984 77.3891 41.0352L77.8297 39.4883H78.3828L77.3891 42.568H76.8805L76.407 41.0984C76.2992 40.7539 76.2102 40.4492 76.1328 40.0836H76.1211C76.0437 40.4539 75.95 40.7727 75.8398 41.1031L75.343 42.568H74.8344L73.9062 39.4883H74.4781Z" fill="white"/>
<path d="M18.75 109.188H36.9562L43.7859 116.017H18.75V109.188Z" fill="#666666"/>
<path d="M131.251 109.188H113.045L106.215 116.017H131.251V109.188Z" fill="#666666"/>
<path d="M68.3066 63.1633L64.9574 59.1484H52.2379L48.2207 63.1633V68.5211H101.78V63.1633H68.3066Z" fill="white"/>
<path d="M104.463 68.5312H45.541V103.345H104.463V68.5312Z" fill="white"/>
<path d="M98.4258 65.8359H51.5625V68.5148H98.4258V65.8359Z" fill="#3B3B3B"/>
<path d="M67.6898 88.7617H64.0078V98.8328H67.6898V88.7617Z" fill="#00C454"/>
<path d="M61.5512 92.8828H57.8691V98.8359H61.5512V92.8828Z" fill="#3B3B3B"/>
<path d="M73.8246 83.168H70.1426V98.8359H73.8246V83.168Z" fill="#3B3B3B"/>
<path d="M79.9613 73.1016H76.2793V98.8406H79.9613V73.1016Z" fill="#00C454"/>
<path d="M86.0883 78.2891H82.4062V98.8344H86.0883V78.2891Z" fill="#3B3B3B"/>
<path d="M92.2367 86.5625H88.5547V98.8719H92.2367V86.5625Z" fill="#00C454"/>
</g>
<defs>
<clipPath id="clip0_537_548">
<rect width="150" height="150" fill="white"/>
</clipPath>
</defs>
</svg>
