<svg width="95" height="95" viewBox="0 0 95 95" fill="none" xmlns="http://www.w3.org/2000/svg">
<path d="M59.375 45.1094H56.2083C54.0264 45.1094 52.25 46.8858 52.25 49.0676C52.25 51.2495 54.0264 53.0259 56.2083 53.0259H59.375C61.5568 53.0259 63.3333 51.2495 63.3333 49.0676C63.3333 46.8858 61.5568 45.1094 59.375 45.1094Z" fill="black"/>
<path d="M57.5333 13.7639C55.5129 12.9422 53.1982 13.9191 52.3764 15.941L27.928 76.076C27.1062 78.0979 28.0831 80.4111 30.105 81.2329C30.5912 81.4309 31.0946 81.5242 31.5902 81.5242C33.1528 81.5242 34.6381 80.5916 35.2619 79.0573L59.7087 18.9207C60.5304 16.8989 59.5552 14.5856 57.5333 13.7639Z" fill="black"/>
<path d="M91.041 45.1094H87.8743C85.6924 45.1094 83.916 46.8858 83.916 49.0676C83.916 51.2495 85.6924 53.0259 87.8743 53.0259H91.041C93.2229 53.0259 94.9993 51.2495 94.9993 49.0676C94.9993 46.8858 93.2229 45.1094 91.041 45.1094Z" fill="black"/>
<path d="M75.209 45.1094H72.0423C69.8604 45.1094 68.084 46.8858 68.084 49.0676C68.084 51.2495 69.8604 53.0259 72.0423 53.0259H75.209C77.3908 53.0259 79.1672 51.2495 79.1672 49.0676C79.1674 46.8858 77.3908 45.1094 75.209 45.1094Z" fill="black"/>
<path d="M29.2917 45.1094H3.95827C1.77643 45.1094 0 46.8858 0 49.0676C0 51.2495 1.77643 53.0259 3.95827 53.0259H29.2915C31.4734 53.0259 33.2498 51.251 33.2498 49.0676C33.25 46.8858 31.4736 45.1094 29.2917 45.1094Z" fill="black"/>
</svg>
