<svg width="78" height="78" viewBox="0 0 78 78" fill="none" xmlns="http://www.w3.org/2000/svg">
<g clip-path="url(#clip0_462_3883)">
<path d="M74.6081 0H23.7388C22.3342 0 21.1953 1.13876 21.1953 2.54352V55.1083C21.1953 56.513 22.3341 57.6519 23.7388 57.6519H74.6081C76.0127 57.6519 77.1516 56.5131 77.1516 55.1083V2.54336C77.1516 1.13876 76.0128 0 74.6081 0ZM72.0647 20.3477H64.4343C63.0297 20.3477 61.8908 21.4864 61.8908 22.8912C61.8908 24.2959 63.0296 25.4347 64.4343 25.4347H72.0647V52.565H39.8474V44.9346C39.8474 43.53 38.7086 42.3911 37.3039 42.3911C35.8991 42.3911 34.7604 43.5298 34.7604 44.9346V52.565H26.2822V5.08688H34.7604V33.0649C34.7604 34.4696 35.8991 35.6085 37.3039 35.6085C38.7086 35.6085 39.8474 34.4697 39.8474 33.0649V25.4346H52.5647C53.9693 25.4346 55.1082 24.2958 55.1082 22.891C55.1082 21.4863 53.9694 20.3475 52.5647 20.3475H39.8474V5.08688H72.0646L72.0647 20.3477Z" fill="black"/>
<path d="M76.4062 68.5698L71.3197 63.4832C70.3266 62.49 68.716 62.49 67.7228 63.4832C66.7295 64.4765 66.7295 66.0869 67.7228 67.0802L68.4677 67.8253H19.7054L20.4503 67.0802C21.4436 66.0871 21.4436 64.4767 20.4505 63.4834C19.4574 62.4901 17.8468 62.4901 16.8535 63.4834L11.7671 68.57C10.767 69.569 10.7842 71.1858 11.7671 72.1678L16.8535 77.2544C17.8466 78.2477 19.4572 78.2478 20.4505 77.2544C21.4438 76.2611 21.4438 74.6507 20.4505 73.6575L19.7054 72.9122H68.4676L67.7226 73.6573C66.7293 74.6506 66.7293 76.261 67.7226 77.2543C68.7157 78.2475 70.3263 78.2477 71.3196 77.2543L76.406 72.1677C77.3979 71.1769 77.3956 69.5582 76.4062 68.5698Z" fill="black"/>
<path d="M11.7666 53.3101L11.0215 54.0551V8.684L11.7666 9.42896C12.7597 10.4222 14.3703 10.4224 15.3635 9.42896C16.3568 8.43583 16.357 6.82526 15.3635 5.83199L10.2765 0.744957C9.28339 -0.248319 7.67283 -0.248319 6.67955 0.744957L1.59267 5.83184C0.599395 6.82496 0.599242 8.43553 1.59267 9.4288C2.58579 10.4221 4.19636 10.4221 5.18964 9.4288L5.93459 8.68385V54.0547L5.18964 53.3098C4.19651 52.3165 2.58595 52.3165 1.59267 53.3098C0.599395 54.3029 0.599242 55.9135 1.59267 56.9068L6.67955 61.9936C7.67267 62.9869 9.28324 62.9871 10.2765 61.9936L15.3634 56.9068C16.3567 55.9136 16.3568 54.3031 15.3634 53.3098C14.3704 52.3168 12.7599 52.3168 11.7666 53.3101Z" fill="black"/>
</g>
<defs>
<clipPath id="clip0_462_3883">
<rect width="78" height="78" fill="white"/>
</clipPath>
</defs>
</svg>
