<svg width="109" height="109" viewBox="0 0 109 109" fill="none" xmlns="http://www.w3.org/2000/svg">
<path d="M0 54.5C3.00151 127.195 106.025 127.139 109 54.5C106.018 -18.1558 2.99348 -18.1776 0 54.5Z" fill="#D43C89"/>
<path d="M68.8094 53.0108C85.1731 50.9604 101.408 54.2419 103.019 54.5999C102.942 42.9621 98.7751 32.2721 91.9483 23.8906C90.8996 25.3007 82.6673 35.8875 64.5137 43.3213C66.0752 46.4731 67.4968 49.7454 68.8094 53.0108Z" fill="#B2005F"/>
<path d="M87.0619 18.4993C78.3947 10.758 66.991 6.06641 54.4882 6.06641C50.5252 6.09165 46.6643 6.57928 42.9824 7.45128C44.3375 9.271 53.2605 21.4732 61.315 36.2892C78.8032 29.7274 86.1922 19.7556 87.0619 18.4993Z" fill="#B2005F"/>
<path d="M52.5779 39.2669C44.4477 24.7584 35.652 12.5562 34.3486 10.7617C20.618 17.273 10.3147 29.987 7.14453 45.2653C9.34288 45.2905 29.5927 45.3674 52.5779 39.2669Z" fill="#B2005F"/>
<path d="M58.3119 54.8845C58.9464 54.6803 59.5809 54.4772 60.2406 54.2994C59.0221 51.5262 57.6774 48.7266 56.2811 46.0039C31.9409 53.3069 8.28564 53.0017 6.15384 52.9764C5.72013 65.9187 10.562 78.199 18.667 87.1519C19.7834 85.2427 33.1594 63.0274 58.3119 54.8845Z" fill="#B2005F"/>
<path d="M62.9457 62.458C36.1031 71.8423 26.4457 90.5123 25.6035 92.2505C38.2073 102.58 58.2415 105.418 73.3959 98.5324C72.6776 94.3364 69.9285 79.7626 63.2428 62.3594C63.1442 62.4087 63.0203 62.434 62.9457 62.458Z" fill="#B2005F"/>
<path d="M72.6699 60.058C78.9127 77.288 81.4496 91.3008 81.9716 94.2185C92.6662 86.9374 100.301 75.4431 102.439 62.1026C100.798 61.5783 87.6419 57.6635 72.6699 60.058Z" fill="#B2005F"/>
</svg>
