<svg width="81" height="80" viewBox="0 0 81 80" fill="none" xmlns="http://www.w3.org/2000/svg">
<path d="M26.6848 40C26.6848 32.6365 32.6561 26.6656 40.024 26.6656C47.3919 26.6656 53.3664 32.6365 53.3664 40C53.3664 47.3635 47.3919 53.3344 40.024 53.3344C32.6561 53.3344 26.6848 47.3635 26.6848 40ZM19.4722 40C19.4722 51.344 28.6732 60.5395 40.024 60.5395C51.3748 60.5395 60.5758 51.344 60.5758 40C60.5758 28.656 51.3748 19.4605 40.024 19.4605C28.6732 19.4605 19.4722 28.656 19.4722 40ZM56.5866 18.6461C56.5862 19.5954 56.8675 20.5236 57.3949 21.3131C57.9224 22.1027 58.6722 22.7182 59.5497 23.0819C60.4271 23.4455 61.3928 23.541 62.3246 23.3561C63.2563 23.1713 64.1123 22.7145 64.7842 22.0435C65.4562 21.3724 65.914 20.5174 66.0997 19.5863C66.2853 18.6553 66.1906 17.6901 65.8275 16.8129C65.4643 15.9357 64.849 15.1858 64.0594 14.658C63.2698 14.1303 62.3413 13.8484 61.3914 13.848H61.3894C60.1162 13.8486 58.8952 14.3542 57.9946 15.2539C57.0941 16.1535 56.5877 17.3736 56.5866 18.6461V18.6461ZM23.8543 72.559C19.9521 72.3814 17.8312 71.7318 16.4217 71.183C14.553 70.456 13.2198 69.5901 11.818 68.191C10.4162 66.792 9.54844 65.4608 8.82417 63.5933C8.27472 62.1853 7.62473 60.065 7.44734 56.1651C7.25331 51.9488 7.21457 50.6822 7.21457 40.0003C7.21457 29.3184 7.25651 28.0554 7.44734 23.8355C7.62505 19.9357 8.27984 17.8195 8.82417 16.4074C9.55165 14.5398 10.4181 13.2074 11.818 11.8064C13.2178 10.4054 14.5498 9.53824 16.4217 8.8144C17.8305 8.26528 19.9521 7.61568 23.8543 7.4384C28.0731 7.24448 29.3405 7.20576 40.024 7.20576C50.7075 7.20576 51.9761 7.24768 56.1985 7.4384C60.1007 7.616 62.2181 8.2704 63.6311 8.8144C65.4997 9.53824 66.833 10.4074 68.2348 11.8064C69.6366 13.2054 70.5011 14.5398 71.2286 16.4074C71.7781 17.8154 72.4281 19.9357 72.6054 23.8355C72.7995 28.0554 72.8382 29.3184 72.8382 40.0003C72.8382 50.6822 72.7995 51.9453 72.6054 56.1651C72.4277 60.065 71.7745 62.1846 71.2286 63.5933C70.5011 65.4608 69.6347 66.7933 68.2348 68.191C66.8349 69.5888 65.4997 70.456 63.6311 71.183C62.2223 71.7322 60.1007 72.3818 56.1985 72.559C51.9796 72.753 50.7123 72.7917 40.024 72.7917C29.3357 72.7917 28.0719 72.753 23.8543 72.559V72.559ZM23.5229 0.24224C19.2621 0.43616 16.3506 1.11136 13.808 2.10016C11.1747 3.12128 8.94552 4.4912 6.71795 6.71392C4.49037 8.93664 3.12315 11.168 2.10142 13.7997C1.11203 16.3424 0.436422 19.2506 0.242385 23.5088C0.0451471 27.7738 0 29.1373 0 40C0 50.8627 0.0451471 52.2262 0.242385 56.4912C0.436422 60.7498 1.11203 63.6576 2.10142 66.2003C3.12315 68.8304 4.49069 71.0643 6.71795 73.2861C8.9452 75.5078 11.1747 76.8758 13.808 77.8998C16.3554 78.8886 19.2621 79.5638 23.5229 79.7578C27.7927 79.9517 29.1548 80 40.024 80C50.8932 80 52.2576 79.9549 56.5251 79.7578C60.7862 79.5638 63.6958 78.8886 66.24 77.8998C68.8717 76.8758 71.1025 75.5088 73.33 73.2861C75.5576 71.0634 76.922 68.8304 77.9466 66.2003C78.936 63.6576 79.6148 60.7494 79.8056 56.4912C79.9996 52.223 80.0448 50.8627 80.0448 40C80.0448 29.1373 79.9996 27.7738 79.8056 23.5088C79.6116 19.2502 78.936 16.3408 77.9466 13.7997C76.922 11.1696 75.5541 8.94016 73.33 6.71392C71.106 4.48768 68.8717 3.12128 66.2432 2.10016C63.6958 1.11136 60.7859 0.43296 56.5283 0.24224C52.2608 0.04832 50.8964 0 40.0272 0C29.158 0 27.7927 0.04512 23.5229 0.24224Z" fill="url(#paint0_radial_642_7)"/>
<path d="M26.6848 40C26.6848 32.6365 32.6561 26.6656 40.024 26.6656C47.3919 26.6656 53.3664 32.6365 53.3664 40C53.3664 47.3635 47.3919 53.3344 40.024 53.3344C32.6561 53.3344 26.6848 47.3635 26.6848 40ZM19.4722 40C19.4722 51.344 28.6732 60.5395 40.024 60.5395C51.3748 60.5395 60.5758 51.344 60.5758 40C60.5758 28.656 51.3748 19.4605 40.024 19.4605C28.6732 19.4605 19.4722 28.656 19.4722 40ZM56.5866 18.6461C56.5862 19.5954 56.8675 20.5236 57.3949 21.3131C57.9224 22.1027 58.6722 22.7182 59.5497 23.0819C60.4271 23.4455 61.3928 23.541 62.3246 23.3561C63.2563 23.1713 64.1123 22.7145 64.7842 22.0435C65.4562 21.3724 65.914 20.5174 66.0997 19.5863C66.2853 18.6553 66.1906 17.6901 65.8275 16.8129C65.4643 15.9357 64.849 15.1858 64.0594 14.658C63.2698 14.1303 62.3413 13.8484 61.3914 13.848H61.3894C60.1162 13.8486 58.8952 14.3542 57.9946 15.2539C57.0941 16.1535 56.5877 17.3736 56.5866 18.6461V18.6461ZM23.8543 72.559C19.9521 72.3814 17.8312 71.7318 16.4217 71.183C14.553 70.456 13.2198 69.5901 11.818 68.191C10.4162 66.792 9.54844 65.4608 8.82417 63.5933C8.27472 62.1853 7.62473 60.065 7.44734 56.1651C7.25331 51.9488 7.21457 50.6822 7.21457 40.0003C7.21457 29.3184 7.25651 28.0554 7.44734 23.8355C7.62505 19.9357 8.27984 17.8195 8.82417 16.4074C9.55165 14.5398 10.4181 13.2074 11.818 11.8064C13.2178 10.4054 14.5498 9.53824 16.4217 8.8144C17.8305 8.26528 19.9521 7.61568 23.8543 7.4384C28.0731 7.24448 29.3405 7.20576 40.024 7.20576C50.7075 7.20576 51.9761 7.24768 56.1985 7.4384C60.1007 7.616 62.2181 8.2704 63.6311 8.8144C65.4997 9.53824 66.833 10.4074 68.2348 11.8064C69.6366 13.2054 70.5011 14.5398 71.2286 16.4074C71.7781 17.8154 72.4281 19.9357 72.6054 23.8355C72.7995 28.0554 72.8382 29.3184 72.8382 40.0003C72.8382 50.6822 72.7995 51.9453 72.6054 56.1651C72.4277 60.065 71.7745 62.1846 71.2286 63.5933C70.5011 65.4608 69.6347 66.7933 68.2348 68.191C66.8349 69.5888 65.4997 70.456 63.6311 71.183C62.2223 71.7322 60.1007 72.3818 56.1985 72.559C51.9796 72.753 50.7123 72.7917 40.024 72.7917C29.3357 72.7917 28.0719 72.753 23.8543 72.559V72.559ZM23.5229 0.24224C19.2621 0.43616 16.3506 1.11136 13.808 2.10016C11.1747 3.12128 8.94552 4.4912 6.71795 6.71392C4.49037 8.93664 3.12315 11.168 2.10142 13.7997C1.11203 16.3424 0.436422 19.2506 0.242385 23.5088C0.0451471 27.7738 0 29.1373 0 40C0 50.8627 0.0451471 52.2262 0.242385 56.4912C0.436422 60.7498 1.11203 63.6576 2.10142 66.2003C3.12315 68.8304 4.49069 71.0643 6.71795 73.2861C8.9452 75.5078 11.1747 76.8758 13.808 77.8998C16.3554 78.8886 19.2621 79.5638 23.5229 79.7578C27.7927 79.9517 29.1548 80 40.024 80C50.8932 80 52.2576 79.9549 56.5251 79.7578C60.7862 79.5638 63.6958 78.8886 66.24 77.8998C68.8717 76.8758 71.1025 75.5088 73.33 73.2861C75.5576 71.0634 76.922 68.8304 77.9466 66.2003C78.936 63.6576 79.6148 60.7494 79.8056 56.4912C79.9996 52.223 80.0448 50.8627 80.0448 40C80.0448 29.1373 79.9996 27.7738 79.8056 23.5088C79.6116 19.2502 78.936 16.3408 77.9466 13.7997C76.922 11.1696 75.5541 8.94016 73.33 6.71392C71.106 4.48768 68.8717 3.12128 66.2432 2.10016C63.6958 1.11136 60.7859 0.43296 56.5283 0.24224C52.2608 0.04832 50.8964 0 40.0272 0C29.158 0 27.7927 0.04512 23.5229 0.24224Z" fill="url(#paint1_radial_642_7)"/>
<defs>
<radialGradient id="paint0_radial_642_7" cx="0" cy="0" r="1" gradientUnits="userSpaceOnUse" gradientTransform="translate(10.6349 80.3779) scale(104.496 104.433)">
<stop offset="0.09" stop-color="#FA8F21"/>
<stop offset="0.78" stop-color="#D82D7E"/>
</radialGradient>
<radialGradient id="paint1_radial_642_7" cx="0" cy="0" r="1" gradientUnits="userSpaceOnUse" gradientTransform="translate(48.5456 83.9619) scale(82.3572 82.3078)">
<stop offset="0.64" stop-color="#8C3AAA" stop-opacity="0"/>
<stop offset="1" stop-color="#8C3AAA"/>
</radialGradient>
</defs>
</svg>
