<svg width="107" height="110" viewBox="0 0 107 110" fill="none" xmlns="http://www.w3.org/2000/svg">
<path fill-rule="evenodd" clip-rule="evenodd" d="M53.1034 110C82.4317 110 106.207 86.2247 106.207 56.8964C106.207 27.5682 82.4317 3.79297 53.1034 3.79297C23.7752 3.79297 0 27.5682 0 56.8964C0 66.4205 2.50724 75.359 6.89764 83.0878L0 110L27.746 103.566C35.2812 107.669 43.92 110 53.1034 110ZM53.1034 101.83C77.9198 101.83 98.0373 81.7128 98.0373 56.8964C98.0373 32.0804 77.9198 11.9627 53.1034 11.9627C28.2873 11.9627 8.16978 32.0804 8.16978 56.8964C8.16978 66.4782 11.1688 75.3593 16.2794 82.6523L12.2546 97.7451L27.6135 93.9053C34.8563 98.9035 43.6381 101.83 53.1034 101.83Z" fill="#BFC8D0"/>
<path d="M98.6204 53.1032C98.6204 78.2416 78.2416 98.6204 53.1032 98.6204C43.515 98.6204 34.619 95.6557 27.2822 90.5931L11.7239 94.4825L15.8009 79.1937C10.6239 71.8058 7.58594 62.8094 7.58594 53.1032C7.58594 27.9647 27.9647 7.58594 53.1032 7.58594C78.2416 7.58594 98.6204 27.9647 98.6204 53.1032Z" fill="url(#paint0_linear_543_453)"/>
<path fill-rule="evenodd" clip-rule="evenodd" d="M53.1034 106.207C82.4317 106.207 106.207 82.4317 106.207 53.1034C106.207 23.7752 82.4317 0 53.1034 0C23.7752 0 0 23.7752 0 53.1034C0 62.6276 2.50724 71.566 6.89764 79.2948L0 106.207L27.746 99.773C35.2812 103.876 43.92 106.207 53.1034 106.207ZM53.1034 98.0373C77.9198 98.0373 98.0373 77.9198 98.0373 53.1034C98.0373 28.2873 77.9198 8.16978 53.1034 8.16978C28.2873 8.16978 8.16978 28.2873 8.16978 53.1034C8.16978 62.6852 11.1688 71.5664 16.2794 78.8594L12.2546 93.9521L27.6135 90.1124C34.8563 95.1106 43.6381 98.0373 53.1034 98.0373Z" fill="white"/>
<path d="M39.8283 28.4494C38.5659 25.9134 36.6288 26.1379 34.6723 26.1379C31.1754 26.1379 25.7227 30.3265 25.7227 38.1222C25.7227 44.5109 28.5379 51.5043 38.0243 61.966C47.1793 72.0625 59.2087 77.2852 69.1952 77.1073C79.1817 76.9298 81.2364 68.3358 81.2364 65.4337C81.2364 64.1474 80.438 63.5056 79.8884 63.3312C76.4852 61.6979 70.2084 58.6547 68.7803 58.083C67.3522 57.5114 66.6064 58.2848 66.1429 58.7055C64.8479 59.9394 62.2808 63.577 61.4015 64.3951C60.5227 65.2133 59.2122 64.7991 58.6667 64.49C56.6598 63.6847 51.2186 61.2643 46.8815 57.0597C41.5173 51.8601 41.2025 50.0709 40.192 48.4785C39.3837 47.2044 39.9769 46.423 40.2728 46.0813C41.4286 44.748 43.0243 42.6891 43.7401 41.6661C44.4555 40.6427 43.8876 39.0894 43.5466 38.1222C42.0806 33.9612 40.8384 30.478 39.8283 28.4494Z" fill="white"/>
<defs>
<linearGradient id="paint0_linear_543_453" x1="92.9308" y1="18.9652" x2="7.58593" y2="98.6204" gradientUnits="userSpaceOnUse">
<stop stop-color="#5BD066"/>
<stop offset="1" stop-color="#27B43E"/>
</linearGradient>
</defs>
</svg>
